<?xml version="1.0" encoding="UTF-8"?>
<!-- Generator: Adobe Illustrator 23.0.2, SVG Export Plug-In . SVG Version: 6.00 Build 0)  -->
<svg version="1.1" id="Layer_1" xmlns="http://www.w3.org/2000/svg" xmlns:xlink="http://www.w3.org/1999/xlink" x="0px" y="0px" viewBox="0 0 195 52" style="enable-background:new 0 0 195 52;" xml:space="preserve">
<style type="text/css">
	.st0{fill:#F2765D;}
	.st1{fill:#FDD366;}
	.st2{fill:#2188BF;}
	.st3{fill:#F2799C;}
	.st4{fill:none;stroke:#F2799C;stroke-miterlimit:10;}
	.st5{enable-background:new    ;}
</style>
<g>
	<g>
		<path class="st0" d="M16.4,5.6L20,26.2l20.2-13.5L16.4,5.6z"/>
		<path d="M15.9,51.7c0.8,0,1.5-0.5,1.7-1.3l0.6-2.1V30.8L0,51.7H15.9z"/>
		<path class="st1" d="M0.6,47.9l17.5-20.2L14.8,8.2L0.6,47.9z"/>
		<path class="st2" d="M38.7,4.5C38,2.4,36,1,33.7,1H21.1c-1.8,0-3.5,1-4.5,2.5L41,10.8L38.7,4.5z"/>
		<path class="st0" d="M37,35l17.9,14.5L42.7,15.7L37,35z"/>
		<path d="M35.1,34l5.7-19.1l-19.4,13L35.1,34z"/>
		<path class="st1" d="M23.9,45.7h9.5c1.5,0,2.9,1,3.3,2.5l0.7,2.3c0.2,0.8,0.9,1.3,1.7,1.3h15.2l-18.4-15    C35.7,36.7,23.9,45.7,23.9,45.7z"/>
		<path class="st2" d="M20.3,29.6v16.1l13.4-10.1L20.3,29.6z"/>
		<path d="M99.9,16.9c0,0-0.1-0.1-0.1-0.1c-0.1,0-0.1-0.1-0.1-0.1c0,0.1,0,0.3,0,0.4c0,0,0.1,0.1,0.2,0.1c0.1,0,0.1,0,0.1-0.1    c0,0,0,0,0,0C99.9,17.1,99.9,17,99.9,16.9 M100.1,14.1c0-0.1,0-0.2,0-0.2c-0.1,0-0.2,0-0.2,0c0,0.1,0,0.1,0,0.2    c-0.1,0.1-0.1,0.1,0,0.1C100,14.2,100,14.2,100.1,14.1 M91.6,7.2c0,0,0-0.1,0-0.1c0,0,0-0.1,0-0.1c-0.1-0.1-0.2,0-0.2,0.1    c-0.1,0-0.3,0-0.4,0c-0.1,0-0.3,0-0.4,0h-0.2C90.1,7.1,90,7,89.9,7l-0.4-0.1c-0.1,0-0.2,0-0.2,0c-0.1,0-0.2,0-0.2,0.1    c0,0,0,0-0.1,0h-0.3c-0.1,0-0.2,0-0.3,0c-0.1,0-0.1,0-0.2,0C88,7,87.9,7,87.8,7v0c0,0,0.1,0,0.1,0c0,0,0,0,0.1,0h0.8    c0.1,0,0.3,0,0.4,0c0.3,0,0.6,0,0.9,0.1c0.5,0.1,1.1,0.2,1.6,0.2h0.3c0.1,0.1,0.2,0.1,0.4,0c-0.2-0.1-0.3-0.1-0.5-0.1    C91.9,7.3,91.7,7.3,91.6,7.2 M84.3,8.3c-0.1,0.1-0.2,0.2-0.2,0.3c0.3-0.1,0.5-0.3,0.7-0.5c-0.1,0-0.1,0-0.2,0    C84.5,8.2,84.4,8.2,84.3,8.3 M99.9,23.3c0,0.1,0.1,0.1,0.2,0.1c0.1,0,0.2-0.1,0.2-0.1c0-0.1-0.1-0.2-0.1-0.2c0,0,0,0,0,0    C100,23.1,99.9,23.2,99.9,23.3C99.9,23.3,99.9,23.3,99.9,23.3 M73.3,30.8C73.3,30.8,73.3,30.8,73.3,30.8L73.3,30.8    C73.3,30.8,73.3,30.7,73.3,30.8L73.3,30.8z M65.5,9.5c0,0,0,0.1,0,0.1c0,0,0,0.1,0.1,0.1c0.1-0.1,0.2-0.2,0.1-0.4L65.5,9.5z     M82.8,16.6c-0.1,0.1-0.1,0.1,0,0.1c0,0.1,0,0.1,0,0.1c0,0,0.1,0.1,0.1,0.1h0v-0.3L82.8,16.6L82.8,16.6z M65,10.4L65,10.4L65,10.4    L65,10.4z M82.4,16.5c0,0.2,0,0.3,0.1,0.4c0.1,0,0.1-0.1,0.2-0.2c0,0-0.1-0.1-0.1-0.1C82.5,16.6,82.4,16.5,82.4,16.5 M82.6,26.1    c0.1-0.1,0-0.2-0.1-0.2c0,0.1-0.1,0.2-0.2,0.2c0.1,0.1,0.1,0.2,0.2,0.2C82.5,26.2,82.5,26.2,82.6,26.1 M74.3,29.5h1v1h-1V29.5z     M164.1,18.1c0,0.1,0,0.1-0.1,0.2l0.2,0c0-0.1,0-0.3,0-0.4C164.1,18,164.1,18.1,164.1,18.1 M164.2,14.7L164.2,14.7l-0.1,0l0,0.2    c0,0.2,0,0.2,0.2,0.2L164.2,14.7C164.3,14.7,164.2,14.7,164.2,14.7 M164.1,16.5c0,0.2,0,0.3,0.1,0.5c0,0,0-0.1,0.1-0.1    c0,0,0.1-0.1,0.1-0.1c0,0-0.1-0.1-0.1-0.1C164.2,16.6,164.2,16.6,164.1,16.5 M164.7,25.1C164.7,25,164.7,25,164.7,25.1    C164.6,25,164.6,25,164.7,25.1c-0.1,0-0.1,0.2-0.1,0.3c0,0.1,0,0.2,0,0.4C164.7,25.5,164.7,25.3,164.7,25.1L164.7,25.1z     M185.5,18.8c-0.1,0-0.1,0.1,0,0.2c0,0.1,0.1,0.2,0.2,0.2c0,0,0.1,0,0.1-0.1c0-0.1-0.1-0.1-0.1-0.2    C185.7,18.8,185.6,18.8,185.5,18.8 M184.5,16.4c-0.1-0.1-0.1-0.3-0.2-0.4c-0.1-0.1-0.1-0.3-0.2-0.4c0-0.1-0.1-0.2-0.1-0.3    c0-0.1-0.1-0.2-0.1-0.3c-0.1-0.2-0.2-0.2-0.2-0.2c-0.1,0-0.1,0.1-0.1,0.1c0,0.1,0,0.1,0,0.2c0,0,0,0.1,0,0.1c0,0,0,0.1,0,0.1    c0.1,0.1,0.1,0.2,0.1,0.2c0,0.1,0.1,0.1,0.1,0.2c0,0.1,0.1,0.2,0.1,0.2c0,0.1,0.1,0.1,0.1,0.2c0,0.1,0,0.3,0.1,0.4    c0,0.1,0.1,0.2,0.1,0.4c0,0,0,0.1,0.1,0.1c0,0,0,0,0,0c0.1,0.1,0.2,0.1,0.3,0c0.1-0.1,0.1-0.2,0.1-0.3c0,0-0.1-0.1-0.1-0.1    C184.6,16.5,184.5,16.5,184.5,16.4 M164.1,22.8c0.1,0,0.1,0.1,0.2,0.1c0,0,0,0,0.1-0.1C164.3,22.7,164.2,22.7,164.1,22.8    C164.2,22.7,164.2,22.7,164.1,22.8 M64.3,11.8l0.1,0.1C64.4,11.8,64.3,11.8,64.3,11.8"/>
		<path d="M70.7,13.5c0,0.1,0,0.3,0,0.4c0,0.1,0,0.3-0.1,0.4c0,0.1,0,0.2,0,0.3c0,0.1,0,0.2,0,0.3v0.5c0,0.2,0,0.3,0,0.5    c0,0,0,0.1,0,0.1c0,0,0,0,0,0.1v1c0,0.2,0,0.4,0,0.5c0,0.1-0.1,0.1-0.1,0.2c0,0-0.1,0-0.1,0c0,0-0.1,0-0.1,0c0,0-0.1,0-0.1,0.1    c0,0-0.1,0-0.1,0.1c-0.1,0-0.2,0-0.2,0c-0.1,0-0.3,0-0.4,0c-0.2,0-0.3,0-0.5,0c0,0,0,0,0,0s0,0,0,0c-0.1-0.1-0.3,0-0.4,0    c-0.1,0-0.1,0-0.2,0c-0.1,0-0.2,0-0.2,0c-0.1,0-0.1,0-0.1,0c0,0-0.1,0-0.1,0c0-0.1,0-0.1,0-0.2c0-0.2,0-0.4,0-0.5    c0-0.1,0-0.2,0-0.3c0-0.1,0-0.2,0-0.3c0,0,0-0.1,0-0.1c0,0,0-0.1,0-0.1c0.1-0.2,0.1-0.3,0.1-0.5c0-0.2,0.1-0.3,0.1-0.5    c0-0.1,0-0.3,0.1-0.4c0-0.1,0.1-0.3,0.1-0.4c0-0.1,0-0.1,0.1-0.2c0-0.1,0-0.1,0.1-0.2c0-0.1,0-0.3,0.1-0.4c0-0.2,0-0.3,0.1-0.4    c0-0.1,0.1-0.3,0.1-0.4c0-0.1,0.1-0.2,0.1-0.3c0-0.1,0.1-0.1,0.1-0.1c0.1-0.1,0.1-0.1,0.1-0.2c0,0,0-0.1,0.1-0.1    c0.1-0.1,0.1-0.2,0.1-0.3v-0.1c0.1-0.1,0.1-0.3,0.2-0.4l0.2-0.3c0.1-0.2,0.2-0.3,0.3-0.5c0.1-0.1,0.2-0.3,0.4-0.4    c0.1-0.1,0.1-0.2,0.2-0.3c0,0,0.1,0,0.1,0.1c0,0.1,0.1,0.3,0.1,0.6c0,0.2,0,0.4,0,0.6c0,0.2,0,0.4,0,0.6c0,0.2,0,0.5,0,0.7    C70.7,13.1,70.7,13.3,70.7,13.5C70.7,13.5,70.7,13.5,70.7,13.5z M65.9,10.2c-0.1-0.1-0.1-0.1-0.1-0.1c0,0,0-0.1,0-0.1L66,9.8    C66.1,10,66.1,10.2,65.9,10.2C65.9,10.2,65.9,10.2,65.9,10.2z M75.8,24.4c0-0.1,0-0.1,0-0.2c0-0.1,0-0.1,0-0.2    c0-0.1-0.1-0.1-0.1-0.2l0.1-0.2c0,0,0-0.1,0-0.1v-0.5c0-0.1-0.1-0.1-0.1-0.2V22c0-0.1-0.1-0.3-0.1-0.4v-1c0-0.1,0-0.2,0-0.2    c0-0.1,0-0.2,0-0.3c0,0,0-0.1,0-0.1c0,0,0-0.1,0-0.1c0,0,0-0.1,0-0.2c0-0.1,0-0.1,0-0.2l-0.1-0.2c0,0,0-0.1,0-0.1c0,0,0-0.1,0-0.1    c0-0.1,0-0.1,0-0.2c0-0.1,0-0.1,0-0.2c0.1-0.1,0.1-0.1,0.1-0.1c-0.1-0.2-0.1-0.4-0.1-0.5c0-0.2-0.1-0.4-0.2-0.5    c0.1-0.3,0.2-0.6,0.2-0.9c0-0.3,0-0.6,0-0.9c0,0,0-0.1,0.1-0.1c0,0,0-0.1,0.1-0.1c0,0,0-0.1,0-0.1c0,0,0-0.1,0-0.1h0    c0-0.1,0-0.2,0-0.4c0-0.1,0-0.1,0-0.2c0,0,0-0.1,0-0.2c0,0,0,0,0,0c0,0,0,0-0.1,0s0,0-0.1,0c0,0,0,0,0,0c0,0,0,0,0,0    c0-0.2,0-0.5-0.1-0.7c-0.1-0.2-0.1-0.4,0-0.7c-0.1-0.2-0.1-0.4-0.1-0.6c0-0.2,0-0.4-0.1-0.6c0-0.1,0-0.1,0-0.2    c0-0.1,0-0.2-0.1-0.2c-0.1-0.1-0.1-0.2-0.1-0.2c0-0.1,0-0.2,0-0.2c0-0.2,0-0.4-0.1-0.6c0-0.2,0-0.4-0.1-0.6    c-0.1-0.2-0.1-0.3-0.2-0.5c0-0.1,0-0.1-0.1-0.2c0-0.1,0.1-0.1,0.1-0.2c0-0.1-0.1-0.2-0.1-0.3c0-0.1-0.1-0.2-0.1-0.3h0    c0-0.1-0.1-0.2-0.2-0.3C74,8.5,74,8.4,73.9,8.3c0-0.2,0-0.3-0.2-0.4c-0.2-0.2-0.5-0.4-0.8-0.6h-0.3c-0.1-0.1-0.2-0.2-0.2-0.3    c-0.1,0-0.1,0-0.2,0c-0.1,0-0.1,0-0.2,0c-0.2-0.1-0.3-0.2-0.4-0.4c-0.1,0-0.2,0.1-0.3,0.1c-0.1,0-0.1,0-0.2,0    c0-0.1-0.1-0.2-0.2-0.3c-0.1-0.1-0.2-0.1-0.3-0.2c-0.2-0.1-0.3-0.1-0.5,0l-0.3,0.1c-0.1,0-0.2,0.1-0.2,0.1    c-0.1,0.1-0.2,0.2-0.3,0.2c-0.2,0.1-0.4,0.2-0.6,0.3c-0.2,0.1-0.4,0.3-0.6,0.4c-0.1,0.1-0.2,0.2-0.3,0.2c-0.1,0.1-0.2,0.1-0.3,0.2    C67.4,8,67.2,8.1,67,8.3l-0.5,0.5c-0.1,0.1-0.2,0.2-0.3,0.3c0,0,0,0,0,0s0,0,0,0c-0.1,0.1-0.2,0.3-0.3,0.4c0,0,0,0.1,0,0.1    c0,0,0,0.1,0,0.1c-0.1,0.1-0.2,0.1-0.2,0.2c-0.1,0.1-0.1,0.2-0.1,0.3c0,0.1,0,0.2,0,0.3c0,0-0.1,0.1-0.2,0.1c-0.1,0-0.1,0-0.1,0.1    l0.1,0.1v0c0.1,0.1,0.1,0.1,0.2,0.2c0,0.1-0.2,0.2-0.3,0.3c0,0,0-0.1,0-0.2l-0.2,0.2c0,0,0.1,0,0.1,0.1c0,0,0.1,0,0.1,0.1    c0,0,0,0.1,0,0.1c0,0,0,0.1,0,0.1c-0.1,0-0.1,0-0.2,0c0,0,0.1,0.1,0.1,0.1c0,0,0.1,0.1,0.1,0.1l-0.2,0.7c-0.1,0.2-0.2,0.5-0.2,0.7    c0,0-0.1,0.1-0.2,0.1c-0.1,0-0.1,0-0.1,0.1c0,0.1,0.1,0.1,0.1,0.2c0.1,0.1,0.1,0.1,0,0.3c0,0,0,0-0.1,0c0,0,0,0-0.1,0    c0,0.1-0.1,0.1-0.1,0.2l-0.1,0.2c-0.1,0.2-0.2,0.4-0.2,0.6v0.4c0,0.1,0,0.2-0.1,0.4l0.1,0.1c0,0.1,0,0.1,0,0.2c0,0.1,0,0.1,0,0.2    c-0.1,0.1-0.1,0.2,0,0.2c0,0.1,0,0.2-0.1,0.2c0.1,0.1,0.1,0.1,0.1,0.2c0,0-0.1,0-0.1,0c0,0-0.1,0-0.1,0c0.1,0.1,0.2,0.2,0.2,0.3    c0,0.1,0,0.2,0,0.3c0,0.1,0,0.2,0,0.3c0,0.1,0,0.2,0,0.4c0,0,0,0.1-0.1,0.1v0.2c0,0.1,0,0.3,0,0.4c0,0.1,0,0.3,0,0.4    c-0.1,0.1-0.1,0.2-0.2,0.2c0,0,0,0.1,0,0.1c0,0,0,0.1,0,0.1c-0.1,0-0.2,0-0.2,0.1c0,0,0.1,0.1,0.1,0.1c0,0,0,0.1,0.1,0.1    c0,0-0.1,0-0.1,0.1c0,0-0.1,0-0.1,0.1c0,0.1,0,0.1,0,0.2c0,0.1,0,0.1,0,0.2c0,0-0.1,0-0.1,0c0,0-0.1,0-0.1,0    c0.1,0.2,0.1,0.3,0.1,0.5c0,0.1,0,0.3,0,0.4l-0.1,0.1c0,0,0,0.1,0,0.1s0,0.1,0,0.1c0,0,0,0.1,0,0.1c0,0,0,0.1,0,0.1c0,0,0,0-0.1,0    c0,0,0,0-0.1,0c0,0.1-0.1,0.1,0,0.2c0,0.1,0,0.1,0,0.2c0,0.1,0,0.2,0,0.4c0,0,0,0.1-0.1,0.1c0,0,0,0.1-0.1,0.1    c0.1,0.1,0.1,0.2,0,0.3c0,0.1-0.1,0.2-0.1,0.2c0,0.1,0.1,0.1,0.1,0.2c0,0.1,0,0.1,0,0.2c0.1,0.2,0.1,0.3,0.1,0.5    c0,0.2,0,0.4-0.1,0.5v0.2c0.1,0.1,0.1,0.1,0.1,0.2c0,0.1,0,0.2,0,0.2c-0.1,0.1-0.1,0.2-0.2,0.3c0,0.1-0.1,0.3-0.1,0.4    c0,0.2,0.1,0.3,0.1,0.5c0,0.2,0,0.3,0.1,0.5c0,0.1,0,0.1,0,0.1c0,0,0,0.1,0,0.1c0,0-0.1,0-0.1,0c0,0.1,0.1,0.1,0.1,0.2    s0.1,0.1,0.1,0.2c0,0-0.1,0.1-0.1,0.2c0,0.1-0.1,0.1-0.1,0.2c0,0.2,0.1,0.4,0.2,0.5c0,0.2-0.1,0.4-0.1,0.6c0,0,0,0,0.1,0    s0,0,0.1,0c0,0,0,0,0,0s0,0,0,0c0,0.1,0,0.2,0,0.2l0.1,0.2c0,0,0,0.1-0.1,0.1c0,0,0,0.1-0.1,0.1c0,0-0.1,0-0.2,0    c0,0.1,0.1,0.2,0.2,0.2c0.1,0,0.1,0,0.2,0.1c0,0.1,0.1,0.2,0.1,0.3c0,0.1,0,0.2,0,0.3c0.1,0.2,0.1,0.5-0.1,0.7v0.2    c0,0-0.1,0-0.1,0c0,0-0.1,0-0.1,0c0,0.1,0.1,0.1,0.1,0.2c0.1,0,0.1-0.1,0.2-0.1c0.1,0,0.2-0.1,0.2-0.1c0.1,0.1,0.1,0.2,0.2,0.2    c0,0-0.1,0.1-0.1,0.1c0,0-0.1,0.1-0.1,0.1l0.2,0.2c0,0,0.1-0.1,0.1-0.1c0,0,0.1-0.1,0.1-0.1c0.1,0.1,0.2,0.2,0.3,0.2    c0.1,0,0.2,0,0.3,0.1c0,0,0,0,0,0.1c0,0,0,0.1,0.1,0.1c0.6,0,1.1,0.1,1.6,0.4c0.1,0,0.2-0.1,0.2-0.2c0-0.1,0.1-0.2,0.1-0.3    c0.1,0,0.1-0.1,0.2-0.1c0-0.1,0-0.2,0-0.2c0-0.1,0-0.1,0-0.2c0.1,0,0.1-0.1,0.2-0.2c-0.1-0.2-0.1-0.3-0.1-0.5    c0-0.2-0.1-0.4-0.1-0.5c0-0.2,0-0.3,0-0.5c0-0.2,0-0.3,0-0.5c0.1-0.3,0.1-0.6,0-0.8c0-0.2,0-0.5,0-0.7c0,0-0.1-0.1-0.1-0.1    l-0.1-0.1c0-0.2,0-0.4-0.1-0.7c0-0.2-0.1-0.4-0.1-0.5c0-0.2,0-0.4,0.1-0.5c0-0.2,0.1-0.3,0.1-0.5c0-0.2,0-0.3,0-0.5s0-0.3,0.1-0.5    c-0.2-0.1-0.2-0.3,0-0.4c0.1-0.3,0.1-0.6,0.1-0.9c0-0.3,0-0.6,0.1-0.9L67,22.7c0,0,0-0.1,0.1-0.1c0,0,0-0.1,0.1-0.1v-0.2    c0-0.1,0-0.1,0.1-0.2c0,0,0.1,0,0.1,0c0,0,0.1,0,0.1,0v0c0.1,0.1,0.3,0.3,0.4,0.4c0.1,0,0.1-0.1,0.2-0.1c0.1,0,0.1-0.1,0.2-0.1    l0.8,0.2c0.1-0.1,0.2-0.1,0.3-0.1c0.1,0,0.2-0.1,0.3-0.2c0.1,0,0.3,0,0.4-0.1c0.1-0.1,0.3-0.2,0.4-0.1c0.1-0.2,0.2-0.3,0.3-0.4    l0.1,0.1c0,0.2,0.1,0.4,0.1,0.6c0,0.1,0,0.3,0,0.4v0.5c0,0.1,0,0.3,0,0.4c0,0.1,0,0.2-0.1,0.3c0,0.1,0.1,0.2,0.1,0.3    c0,0.1,0,0.2,0,0.3c0,0.2,0,0.3,0,0.5c0,0.2,0,0.3,0,0.5c0,0.1,0,0.3,0,0.4c0,0.1,0,0.3,0,0.4v0.2c0,0.1,0,0.2,0,0.2    c0,0.3,0,0.5,0.1,0.8v0.6c0.1,0.2,0.1,0.4,0.1,0.5c0,0.2,0,0.4,0,0.6v0c0.1,0.1,0.1,0.2,0.1,0.3v0.2c0.1,0.1,0.2,0.2,0.2,0.4    c0.1,0.1,0.2,0.2,0.2,0.4v0.2l0.2,0.2c0.1,0.1,0.1,0.2,0,0.3l0.2,0.2c0,0,0.1,0,0.1,0.1c0,0,0.1,0.1,0.1,0.1    c0.1,0.1,0.2,0,0.2-0.1c0,0,0-0.1,0-0.1c0,0,0-0.1,0.1-0.1c0,0.1,0.1,0.2,0.1,0.3l0.2,0.1c0.1,0,0.1,0,0.2-0.1    c0-0.1,0-0.1-0.1-0.2c0-0.1,0-0.1,0.1-0.2c0.1,0,0.1,0.1,0.2,0.1c0.1,0.3,0.2,0.5,0.3,0.7c0-0.1,0.1-0.2,0.1-0.3c0,0,0.1,0,0.1,0    c0,0,0.1,0,0.1,0c0-0.2,0-0.4,0-0.6c0,0,0,0,0-0.1c0,0,0,0,0-0.1c0,0,0-0.1,0-0.1c0,0,0-0.1,0-0.1c0.1-0.1,0.1-0.1,0.2,0    c0.1,0,0.1,0.1,0.2,0.1c0,0,0.1-0.1,0.1-0.1c0,0,0.1-0.1,0.1-0.1v-0.3c0,0,0.1,0,0.1,0c0,0,0.1,0,0.1,0v0l0.5-0.4v-0.2l0.2-0.1    l0.2-0.1c0-0.1,0-0.1,0-0.2c0-0.1,0-0.1,0-0.2c0-0.2,0.1-0.4,0.1-0.6c0-0.2,0.1-0.4,0.1-0.5c0-0.1,0-0.3,0-0.4    c0.2-0.3,0.2-0.7,0-1.1c0-0.1,0-0.2,0.2-0.2c0-0.1-0.1-0.1-0.1-0.2l0.1-0.1c0-0.2-0.1-0.3-0.1-0.5c0.1-0.2,0.1-0.4,0.1-0.6    C75.9,24.7,75.8,24.6,75.8,24.4L75.8,24.4L75.8,24.4z M64.1,13.5c0-0.1,0-0.1,0-0.2C64,13.3,64,13.4,64.1,13.5 M65,10.4L65,10.4    L65,10.4L65,10.4z"/>
		<path d="M71.1,30.3L71.1,30.3L71.1,30.3L71.1,30.3z M62.5,20.5c0,0.1,0,0.2,0.2,0.3C62.7,20.7,62.6,20.6,62.5,20.5 M83.8,9.2    C83.9,9.2,83.9,9.2,83.8,9.2c0-0.1,0.1-0.2,0.1-0.2c0,0,0,0,0,0c0,0,0,0,0,0c-0.1,0-0.1,0.1-0.2,0.1c0,0,0,0.1,0,0.2l0.1,0    C83.7,9.3,83.8,9.3,83.8,9.2 M82.1,16.1c0.1-0.2,0-0.4-0.1-0.5c0,0.1-0.1,0.2-0.1,0.3S81.9,16,82.1,16.1"/>
		<path d="M92.2,7.4h-0.3c-0.5,0-1.1-0.1-1.6-0.2c-0.3-0.1-0.6-0.1-0.9-0.1c-0.1,0-0.3,0-0.4,0H88c0,0,0,0-0.1,0c0,0-0.1,0-0.1,0v0    C87.9,7,88,7,88,7c0.1,0,0.1,0,0.2,0c0.1,0,0.2,0,0.3,0h0.3c0,0,0.1,0,0.1,0c0.1-0.1,0.1-0.1,0.2-0.1c0.1,0,0.2,0,0.2,0L89.8,7    c0.1,0,0.3,0.1,0.4,0.1h0.2c0.1,0,0.3,0,0.4,0c0.1,0,0.3,0,0.4,0c0.1-0.1,0.1-0.2,0.2-0.1c0,0,0,0.1,0,0.1c0,0,0,0.1,0,0.1    c0.1,0.1,0.3,0.2,0.5,0.2c0.2,0,0.3,0,0.5,0.1C92.4,7.5,92.3,7.5,92.2,7.4C92.1,7.4,92.2,7.4,92.2,7.4z M84.1,8.6    c0-0.1,0.1-0.2,0.2-0.3c0.1-0.1,0.2-0.1,0.3-0.2c0,0,0.1,0,0.2,0C84.6,8.3,84.3,8.5,84.1,8.6C84.1,8.6,84.1,8.6,84.1,8.6z     M82.9,16.9L82.9,16.9c-0.1,0-0.1-0.1-0.1-0.1c0,0,0,0,0-0.1c0,0,0-0.1,0-0.1l0.1,0h0V16.9z M82.5,16.8c-0.1-0.1-0.1-0.2-0.1-0.4    c0,0,0.1,0.1,0.1,0.1c0.1,0,0.1,0.1,0.1,0.1C82.6,16.8,82.6,16.8,82.5,16.8C82.5,16.8,82.5,16.8,82.5,16.8z M94.9,9    c0-0.1,0-0.2-0.1-0.3c0.1-0.1,0.1-0.2,0-0.2c0-0.1-0.1-0.2-0.1-0.2c-0.1-0.3-0.2-0.6-0.4-0.9c0,0-0.1,0-0.1-0.1c0,0-0.1,0-0.1-0.1    C93.9,7.1,93.7,7,93.4,7c-0.2-0.1-0.5-0.1-0.7-0.2c-0.4-0.1-0.9-0.1-1.3-0.2c-0.4-0.1-0.9-0.1-1.3-0.2c-0.2,0-0.4-0.1-0.6-0.1    c-0.1,0-0.1,0-0.2-0.1c-0.1,0-0.1-0.1-0.2-0.1c0,0,0,0,0,0c0,0,0,0,0,0c0,0,0,0.1,0,0.2h-0.3c-0.2,0-0.3,0-0.5,0h-0.5    c-0.3,0.1-0.6,0.1-0.8,0.1h-0.2c-0.1,0-0.2,0-0.4,0c-0.1,0-0.2,0-0.3,0.1c-0.1,0-0.2,0-0.3,0.1c-0.1,0.1-0.3,0.1-0.4,0.1L85,6.8    c-0.3,0.1-0.3,0.2-0.2,0.4c-0.1,0.2-0.2,0.4-0.4,0.4c-0.1,0-0.1,0.1-0.2,0.1c0,0.1-0.1,0.1-0.2,0.1c0,0,0,0,0,0.1c0,0,0,0.1,0,0.1    c0,0.1,0,0.1,0,0.2c-0.1,0-0.1,0-0.2,0c0,0.1,0,0.2,0,0.3c0,0.1,0,0.2,0,0.3c0.1,0.1,0.2,0,0.3-0.1c0.1-0.1,0.2-0.2,0.3-0.2v0    c0,0.1-0.1,0.2-0.2,0.3c-0.1,0.1-0.1,0.2,0,0.3l0,0c0,0,0,0.1-0.1,0.1c0,0,0,0.1-0.1,0.1c0,0.1-0.1,0.2-0.1,0.3    c0,0.1-0.1,0.2-0.1,0.3c0,0.1-0.1,0.2-0.1,0.3c0,0.1-0.1,0.2-0.1,0.3c-0.1,0.1-0.1,0.2-0.1,0.3c0,0.1-0.1,0.2-0.1,0.3    c0-0.1-0.1-0.2-0.1-0.3c0-0.1,0.1-0.3,0.1-0.4s0.1-0.3,0.1-0.4c0-0.1-0.1-0.2-0.2-0.3c0,0-0.1,0-0.1,0c0,0-0.1,0.1-0.1,0.1    c0,0.2-0.1,0.3-0.2,0.5c0,0,0,0.1,0,0.1c0,0,0,0.1,0,0.1c-0.1,0.1-0.2,0.2-0.2,0.3c0,0.1,0,0.3-0.1,0.4c-0.1,0.1-0.1,0.3,0,0.4    c0,0.1,0.1,0.2,0.1,0.2c0,0.1,0.1,0.2,0.1,0.2l0.1,0c0.1-0.1,0.1-0.1,0.1-0.1c-0.1-0.1,0-0.2,0.1-0.2v-0.3    c0.1-0.1,0.2-0.1,0.3-0.2c0,0.1-0.1,0.2-0.1,0.3c0,0.1,0,0.2,0,0.2c-0.1,0.2-0.1,0.4-0.1,0.5c0,0.2,0,0.4,0.1,0.5    c-0.1,0.1-0.1,0.1-0.1,0.1c0,0.1,0,0.3,0,0.4c0,0,0,0.1,0,0.1c0,0,0,0.1,0,0.1c0,0.1,0,0.2-0.1,0.2c0,0.2,0,0.4-0.1,0.6    c0,0.1,0,0.2,0,0.4c0,0.1,0,0.3,0.1,0.4v0.1c0,0-0.1,0-0.1,0c0,0-0.1,0-0.1,0c0.1,0.1,0.1,0.2,0.2,0.3h0c0,0.1-0.1,0.2-0.1,0.4    c0,0,0,0.1,0,0.1c0,0,0,0.1,0,0.1c0,0,0,0.1,0,0.1c0,0,0,0.1,0,0.1c-0.1-0.1-0.2-0.2-0.2-0.4c0-0.1,0.1-0.2,0.2-0.3    c-0.2-0.2-0.2-0.3-0.1-0.4c0.1-0.1,0.1-0.1,0-0.1c-0.1,0-0.1-0.1-0.1-0.2c0-0.1,0-0.2,0-0.2c0,0,0,0,0-0.1c0,0,0,0,0-0.1h-0.1    c0,0,0,0,0,0.1c0,0,0,0.1,0,0.1c0,0.1,0,0.1,0,0.2c0,0.1,0,0.1,0,0.2c-0.1,0.1-0.1,0.2-0.1,0.3c0,0.1,0.1,0.2,0.1,0.3c0,0,0,0,0,0    s0,0,0,0v0c-0.1,0-0.1,0.1-0.1,0.2c0,0.1,0,0.1,0,0.2c0,0.2-0.1,0.3-0.2,0.3c0.2,0.1,0.2,0.3,0.2,0.5c0,0.2,0,0.4,0.1,0.6    c0.1,0,0.2-0.1,0.2-0.2c0.1,0.1,0.1,0.1,0.2,0.1c0.1,0,0.1,0.1,0.1,0.2c-0.1,0-0.1,0-0.2,0c0,0,0,0,0,0c0.1,0.1,0.2,0.2,0.2,0.3    c0,0,0,0.1,0,0.1c0,0,0,0,0,0.1v0.4c0,0.1,0,0.2-0.1,0.2c0,0,0,0,0,0c-0.1,0-0.1,0.1-0.1,0.2c0,0.2,0,0.3,0,0.5L82.7,20    c-0.1,0.2,0,0.3,0,0.3c0.1,0,0.1,0.1,0.1,0.1v0.2c0,0.1,0,0.3,0,0.4c0,0.1,0,0.3,0,0.4c0,0.2,0,0.4,0,0.6c0,0.2,0,0.4,0,0.6    c0,0.3,0,0.6,0,0.9s0,0.6,0.1,0.9v0.8h0c-0.1-0.1-0.1-0.2-0.2-0.4c0,0,0,0,0-0.1c0,0,0,0,0-0.1c0-0.1,0-0.2,0-0.4v-0.7    c0,0,0-0.1,0-0.1c0,0,0-0.1,0-0.1c0-0.1-0.1-0.2-0.1-0.2V23c0,0-0.1-0.1-0.1-0.2c0-0.1,0-0.1,0-0.2c0-0.1,0-0.1,0-0.2    c0-0.1,0-0.1,0-0.2c-0.1-0.2-0.1-0.3,0-0.5c0.1,0,0.1,0,0-0.1c-0.1,0-0.1-0.1-0.1-0.2c0-0.1-0.1-0.1-0.1-0.2    c0-0.1,0.1-0.1,0.1-0.2s0.1-0.1,0.1-0.2v-0.2c0-0.1,0-0.1,0-0.2c-0.1-0.2-0.2-0.3-0.1-0.3c0-0.1,0.1-0.2,0.2-0.3    c0-0.1,0-0.3,0-0.4c0-0.2,0-0.3,0-0.5v-0.1c0.1,0,0.1-0.1,0.1-0.2c0-0.1,0-0.1-0.1-0.2c-0.1,0.1-0.1,0.1-0.1,0.2    c-0.1,0.3-0.1,0.6-0.1,0.9c0,0.1,0,0.2,0,0.4c-0.1,0.2-0.1,0.4,0,0.6c0,0.2,0,0.5,0,0.7L82,22c0,0,0,0.1,0,0.1    c0,0.1,0.1,0.1,0.1,0.2c0,0.1,0,0.2,0,0.2c-0.1,0-0.2,0-0.2,0l0,0c0.1,0.2,0.2,0.4,0.3,0.6c0.1,0.2,0.1,0.5-0.1,0.7    c0,0,0,0.1,0.1,0.2c-0.2,0-0.2,0.1-0.2,0.3c0.1,0.3,0.1,0.6,0.1,0.9v0.3c0,0.1,0.1,0.3,0.2,0.4c0-0.1,0-0.1,0-0.2    c0.1,0.1,0.1,0.2,0.1,0.2c0,0.1,0,0.1,0.1,0.2c0,0,0,0,0,0c0.1,0,0.1-0.1,0.2-0.2c0.1,0.1,0.1,0.2,0.1,0.2c0,0.1-0.1,0.1-0.1,0.2    c0-0.1-0.1-0.2-0.2-0.2c0,0.1-0.1,0.2-0.1,0.3c-0.1,0-0.2,0-0.3-0.1c0,0.2,0.1,0.3,0.1,0.5c0,0.1,0,0.1,0.1,0.1c0,0,0,0,0,0h0.2    l0.1,0.6c-0.1,0-0.1,0-0.2-0.1c-0.1,0-0.1,0-0.2-0.1c0,0.1,0,0.2,0.1,0.2c0.1,0,0.2,0.1,0.3,0.1c0,0,0,0.1,0,0.1c0,0,0,0.1,0,0.1    c0,0.1-0.1,0.2-0.2,0.2c0,0.1,0,0.2,0,0.4c0.1,0.1,0.1,0.2,0.1,0.3c0,0.1,0,0.2,0.1,0.2c-0.1,0.1-0.1,0.3-0.1,0.4    c0,0.2,0,0.3,0.1,0.5c0.2,0,0.2,0,0.2,0.2c0,0.1,0,0.1,0.1,0.2c0.1,0.1,0.1,0.2,0,0.3c0,0,0,0-0.1,0s0,0-0.1,0c0,0.1,0,0.1,0,0.2    v0.2c0.1,0,0.2,0,0.4,0c0,0.1,0,0.2,0,0.4L83,31.4c0,0-0.1-0.1-0.1-0.2h-0.1c0,0.1,0.1,0.3,0.1,0.4c0,0.1,0.1,0.3,0.1,0.4    c0,0.1,0,0.3,0.1,0.4c0,0.1,0,0.2,0.1,0.4c0.1,0,0.3,0.1,0.4,0.1s0.3,0,0.4,0.1c0,0,0.1,0,0.1,0h0.6c0.4,0,0.7-0.1,1-0.4    c0.2-0.1,0.2-0.4,0.2-0.6c0-0.1,0-0.3,0-0.4c0-0.1,0-0.3,0-0.4c0.1-0.1,0.1-0.2,0-0.2c0-0.1,0-0.2,0.1-0.2v-0.2c0-0.1,0-0.3,0-0.4    c0-0.2,0-0.3,0.1-0.4c0-0.1,0-0.2,0-0.4c0-0.1,0-0.2,0.1-0.3v-0.5c0-0.1,0-0.3,0-0.4c0-0.1,0-0.3,0-0.4c-0.1-0.2-0.1-0.3,0-0.4    c0-0.2,0-0.4,0-0.5v-0.5c0-0.2,0-0.4,0.1-0.6c0.1-0.1,0.1-0.3,0.1-0.5c0-0.2,0-0.3,0-0.5c0-0.1,0-0.3,0.1-0.4    c0.1-0.1,0.1-0.2,0-0.2c-0.1-0.2,0-0.5,0.2-0.6c0.1-0.1,0.1-0.2,0-0.3c-0.1-0.1-0.1-0.3,0-0.4c0,0,0.1,0,0.1,0c0,0,0.1,0,0.1,0    c0-0.1,0-0.2,0-0.3c0-0.1,0-0.2,0-0.3c-0.1-0.2-0.1-0.3,0-0.5c0-0.2,0.1-0.4,0.1-0.5H87c0.3,0.1,0.6,0.1,0.8,0c0,0,0.1,0,0.1,0    c0,0,0.1,0,0.1,0c0.1,0,0.3,0,0.4,0c0.1,0,0.3,0,0.4,0h0c0.1,0,0.3-0.1,0.4-0.1c0.2-0.1,0.3,0,0.3,0.1c0.1,0,0.1-0.1,0.2-0.1    c0.2,0,0.5-0.1,0.6-0.3c0.2-0.2,0.2-0.4,0-0.6L90.4,20c0.2,0.1,0.3,0,0.4-0.1c0.1-0.2,0-0.3-0.1-0.4c0,0,0,0,0,0    c-0.1-0.1-0.1-0.3-0.2-0.4c0-0.2,0-0.4,0.1-0.6c0-0.1,0.1-0.2,0.2-0.3s0.1-0.2,0.2-0.3c0.1-0.1,0.1-0.2,0.1-0.3    c0.1-0.1,0-0.2-0.2-0.1c0,0-0.1,0-0.1,0c0,0-0.1,0-0.1,0c-0.3,0.1-0.6,0-0.9,0c-0.3-0.1-0.6-0.1-0.9-0.2c-0.2,0-0.4,0-0.6-0.1    c-0.2,0-0.4,0-0.6-0.1c-0.1,0-0.1,0-0.2,0c0-0.1,0-0.3,0.1-0.4c0-0.1,0-0.3,0-0.4l-0.1-1.3c0-0.1,0-0.2-0.1-0.4c0-0.1,0-0.1,0-0.2    c0-0.1,0-0.1,0-0.2c0,0,0-0.1,0-0.1c0,0,0-0.1,0-0.1c-0.1-0.1-0.1-0.2,0-0.4c0.1-0.1,0.1-0.2,0-0.4c0,0,0-0.1,0-0.1    c0-0.1,0.1-0.2,0.2-0.3l0.2-0.2c0-0.1,0.1-0.1,0.1-0.2c0-0.1,0-0.1,0-0.2c0-0.1,0-0.3,0.1-0.4c0.1-0.1,0.1-0.3,0.2-0.4l0.1-0.2    c0-0.1,0-0.2,0-0.3c0-0.1,0-0.2,0.1-0.2c0.1,0,0.1,0,0.2,0c0.1,0.1,0.2,0.1,0.3,0.1c0.1,0.1,0.2,0.1,0.2,0h0.2c0.1,0,0.2,0,0.3,0    c0.1,0,0.1-0.1,0.2-0.2c0,0.1,0.1,0.1,0.2,0.1c0.1,0,0.2,0,0.2,0.1c0.1,0,0.1,0,0.1,0c0,0,0.1,0.1,0.1,0.1c0,0,0,0,0.1,0    c0,0,0,0,0.1,0h0.3c0.1,0,0.2,0,0.2,0.1h0.1c0.1-0.1,0.2-0.1,0.2,0l0.2,0.1c0.2,0,0.4,0,0.5,0.1c0.2,0,0.3,0,0.5,0.1    c0.1,0.1,0.2,0.2,0.2,0.2c0.2,0.1,0.4,0.1,0.5,0.1c0.2,0,0.4,0,0.5-0.2c0.1-0.1,0.2-0.1,0.2-0.2c0.1-0.1,0.2-0.1,0.3-0.1    c0.1,0,0.1,0,0.2-0.1c0.1,0,0.1-0.1,0.2-0.1c0,0-0.1-0.1-0.2-0.1c-0.1,0-0.1,0-0.2-0.1c0.1-0.1,0.1-0.1,0.1-0.1    c-0.1,0-0.1-0.1-0.1-0.1c0.1-0.1,0.1-0.1,0.1-0.1c0.1-0.1,0.3-0.2,0.4-0.3c0.1-0.2,0.1-0.4,0-0.5C94.8,9.2,94.8,9.1,94.9,9L94.9,9    L94.9,9z"/>
		<path d="M82.3,14.4c0.1,0,0.2-0.1,0.2-0.2c0-0.1,0-0.2,0-0.3c0.1-0.2,0-0.3-0.1-0.4c-0.1,0-0.2,0-0.2,0.1c0,0.1,0,0.3,0,0.4V14.4z    "/>
		<path d="M82.5,13.1c-0.1,0-0.1,0-0.2,0c0,0,0,0.1,0,0.1s0,0.1,0,0.1c0.1-0.1,0.2-0.2,0.2-0.4C82.7,13.1,82.6,13.1,82.5,13.1     M104,15.8l-0.3,0.2l-0.7,0.5c0,0,0,0,0,0c0,0,0,0,0,0c-0.1,0.1-0.2,0.1-0.4,0c-0.1,0-0.1-0.1-0.1-0.2v-0.2c0-0.1,0-0.2,0.1-0.3    c0-0.1,0-0.2,0.1-0.3v-0.2c0-0.1,0-0.2,0-0.4c0-0.1,0-0.2,0.1-0.4c0-0.1,0-0.2,0-0.4c0-0.1,0-0.2,0-0.4c0-0.1,0-0.3,0-0.4    c0-0.2,0-0.3,0.1-0.4c0-0.1,0-0.2,0-0.4c0-0.1,0-0.2,0-0.4c0-0.1,0-0.2,0.1-0.3c0-0.1,0-0.2,0.1-0.3c0.1-0.3,0.1-0.6,0.1-0.8    c0-0.2,0-0.4,0-0.5c0-0.2,0.1-0.4,0.1-0.5c0-0.1,0.1-0.3,0.2-0.4c0.1-0.1,0.2-0.2,0.3-0.4c0.1-0.2,0.3-0.3,0.5-0.5    c0.2-0.1,0.3-0.2,0.5-0.4c0.5-0.4,1.1-0.6,1.7-0.7c0.2,0,0.4,0,0.6,0.1c0.1,0.1,0.3,0.1,0.4,0.1c0.1,0.1,0.2,0.1,0.4,0.2    c0.1,0.1,0.2,0.1,0.2,0.2c0.1,0.1,0.1,0.2,0.2,0.2c0.2,0.3,0.2,0.7,0.2,1c-0.1,0.3-0.1,0.5-0.1,0.8c0,0.2-0.1,0.5-0.2,0.7    c-0.1,0.2-0.2,0.4-0.3,0.5c-0.1,0.2-0.2,0.3-0.3,0.5c-0.1,0.2-0.3,0.5-0.4,0.7c-0.1,0.2-0.3,0.5-0.4,0.7c-0.1,0.2-0.3,0.5-0.4,0.7    c-0.2,0.2-0.3,0.4-0.5,0.6c-0.2,0.2-0.4,0.4-0.7,0.5c-0.2,0.1-0.5,0.3-0.7,0.4C104.2,15.6,104.1,15.7,104,15.8 M100.1,23.5    c-0.1,0-0.2,0-0.2-0.1c0-0.1,0.1-0.2,0.2-0.2c0,0,0,0,0,0c0.1,0,0.2,0.1,0.2,0.1C100.2,23.4,100.2,23.5,100.1,23.5    C100.1,23.5,100.1,23.5,100.1,23.5 M99.8,17.2c-0.1,0-0.1,0-0.2-0.1c0-0.1,0-0.3,0-0.4c0,0,0.1,0.1,0.1,0.1c0,0,0.1,0.1,0.1,0.1    c0.1,0.1,0.1,0.1,0,0.2C99.9,17.1,99.9,17.2,99.8,17.2C99.8,17.2,99.8,17.2,99.8,17.2 M99.9,14.1c0-0.1,0-0.1,0-0.2    c0-0.1,0.1-0.1,0.2,0c0,0.1,0,0.2,0,0.2c-0.1,0.1-0.1,0.1-0.1,0.1C99.8,14.2,99.8,14.1,99.9,14.1 M111.3,31.2    c-0.1-0.1-0.1-0.1-0.1-0.2c0-0.1-0.1-0.1-0.1-0.2c-0.1-0.1-0.1-0.2-0.1-0.2c0-0.1-0.1-0.2-0.1-0.2c-0.1-0.1-0.1-0.2-0.2-0.3    c-0.1-0.1-0.1-0.2-0.2-0.3c0,0,0,0,0-0.1s0,0,0-0.1c0-0.1-0.1-0.2-0.1-0.3c0-0.1-0.1-0.2-0.1-0.3c-0.1-0.1-0.2-0.3-0.2-0.4    c-0.1-0.1-0.2-0.3-0.2-0.4c-0.1-0.1-0.2-0.2-0.2-0.3c-0.1-0.1-0.2-0.2-0.2-0.3c-0.1-0.1-0.2-0.3-0.3-0.4c-0.1-0.1-0.2-0.3-0.3-0.4    c-0.1-0.4-0.3-0.7-0.5-1.1c-0.1-0.1-0.1-0.2-0.2-0.3c-0.1-0.1-0.1-0.2-0.2-0.3c-0.1-0.1-0.1-0.2-0.2-0.3c-0.1-0.1-0.1-0.2-0.1-0.3    c-0.2-0.7-0.6-1.3-1.1-1.8c-0.1-0.1-0.2-0.3-0.4-0.4l-0.6-0.6c-0.2-0.2-0.4-0.5-0.6-0.7c-0.1,0-0.1-0.1-0.1-0.2    c0-0.1,0-0.1-0.1-0.2c-0.2-0.2-0.2-0.5,0-0.6c0,0,0,0,0.1,0c0.1-0.1,0.1-0.1,0.2-0.2c0.1-0.2,0.3-0.3,0.5-0.4    c0.3-0.1,0.5-0.3,0.6-0.5c0-0.1,0.1-0.2,0.2-0.2c0.1-0.1,0.2-0.1,0.3-0.1s0.2-0.1,0.3-0.1c0.1,0,0.3,0,0.4,0.1    c0.1,0.1,0.2,0.1,0.3,0l0.2-0.2c0,0,0.1,0,0.1-0.1c0,0,0.1-0.1,0.1-0.1c0.1-0.1,0.2-0.2,0.2-0.3c0.1-0.1,0.1-0.2,0.2-0.3    c0,0,0-0.1,0-0.1c0,0,0-0.1,0-0.1c0,0,0,0,0-0.1c0,0,0-0.1,0-0.1c0.2-0.2,0.4-0.4,0.5-0.6c0.1-0.1,0.2-0.3,0.3-0.4    c0.1-0.1,0.1-0.3,0.2-0.4c0.1-0.1,0.1-0.2,0.2-0.4c0.1-0.1,0.1-0.2,0.2-0.3c0,0,0,0,0,0s0,0,0,0c0-0.2,0.1-0.3,0.2-0.5    c0.1-0.2,0.1-0.3,0.2-0.5c0-0.1,0.1-0.2,0.1-0.3s0.1-0.2,0.1-0.3c0-0.1,0.1-0.2,0.1-0.2c0-0.1,0-0.2,0-0.2c0-0.1,0-0.2,0-0.3    c0-0.1,0.1-0.2,0.1-0.3c0,0,0,0,0-0.1c0,0,0,0,0-0.1c0-0.2,0-0.4,0.1-0.5c0.1-0.2,0.1-0.4,0-0.5c0,0,0-0.1,0-0.1    c0-0.1,0-0.2,0-0.2c0-0.1,0-0.2-0.1-0.3c-0.1-0.1-0.1-0.3-0.1-0.4c0-0.2,0-0.3-0.1-0.5c0-0.1-0.1-0.3-0.1-0.4    c0-0.1-0.1-0.3-0.2-0.4c-0.1-0.1-0.2-0.3-0.3-0.4c-0.1-0.1-0.2-0.2-0.3-0.4c-0.1-0.2-0.3-0.4-0.5-0.6c-0.2-0.2-0.4-0.3-0.6-0.5    c-0.1-0.1-0.2-0.1-0.3-0.2c-0.1-0.1-0.2-0.1-0.3-0.2c-0.1-0.1-0.2-0.1-0.3-0.2c-0.1-0.1-0.2-0.1-0.3-0.2c-0.4-0.2-0.8-0.4-1.3-0.5    c-0.5-0.1-0.9-0.2-1.4-0.2c-0.5,0-1,0.1-1.4,0.3c-0.3,0.1-0.6,0.3-0.9,0.4c-0.3,0.2-0.6,0.4-0.8,0.6c-0.2,0.2-0.4,0.3-0.6,0.5    c-0.2,0.2-0.4,0.4-0.5,0.6c-0.1,0.2-0.2,0.4-0.2,0.7c0,0.1,0,0.3-0.1,0.4l-0.1,0.1c-0.1,0.2-0.2,0.4-0.3,0.6    c-0.1,0.2-0.2,0.4-0.2,0.6c0,0,0,0.1,0,0.1c0,0.1-0.1,0.3-0.1,0.4c0,0.1-0.1,0.2-0.1,0.3c0,0,0,0,0,0.1v0.5c0,0.1,0,0.2,0,0.3    c0,0.1,0,0.2,0.1,0.3c0,0.1,0,0.1,0,0.2v0.2c0,0.3,0,0.6-0.1,0.9c-0.1,0.2-0.1,0.4,0,0.6c0,0,0.1,0.1,0,0.1c0,0,0,0,0,0    c0,0.1-0.1,0.2-0.1,0.3c0,0.1,0,0.2,0,0.3c0,0.1,0,0.2,0,0.3c0,0.1,0,0.2,0,0.2c0,0.2,0,0.4,0,0.6v0.2h0.3c0,0,0,0,0,0    c0,0,0,0,0,0c0,0,0,0,0,0c0,0,0,0,0,0c-0.1,0.1-0.1,0.1-0.1,0.1h-0.2c0,0.1,0,0.2,0,0.2c0,0.2,0,0.4,0,0.6c0,0.1,0.1,0.2,0.1,0.2    c0,0.1,0,0.2,0,0.2c0.1,0.2,0,0.3,0,0.5c-0.1,0.2,0,0.3,0.1,0.5c0,0.1,0,0.2,0,0.3c0,0.1,0,0.2,0,0.3c0,0.1,0,0.1,0,0.2    c0,0.1,0,0.2,0,0.2c0,0.1,0,0.2,0,0.3c0,0.1,0,0.2,0,0.3c0,0.1,0,0.2,0,0.3c0.1,0,0.1,0,0.2,0c0.1,0,0.1,0.1,0.1,0.2    c0,0,0,0.1,0,0.2c0,0.1,0,0.1,0,0.2c-0.1,0-0.1,0-0.2,0v0.4c0,0.1,0,0.2,0,0.4c-0.1,0.2-0.1,0.4,0,0.6c0,0.2,0.1,0.4,0.1,0.5    c0,0.2,0,0.4,0,0.5c0,0.1,0,0.2,0,0.2c0.1,0.1,0.1,0.2,0,0.3c0,0.1,0,0.2,0,0.3v0.3c0,0.1,0.1,0.2,0.1,0.3v0.2    c-0.1,0.1-0.1,0.3,0,0.4c0.1,0.2,0.1,0.3,0.1,0.5c0,0.2,0.1,0.4,0.1,0.5c0,0.1,0,0.2,0,0.4c0,0,0,0,0.1,0c0,0,0,0,0.1,0    c0.1,0,0.1,0,0.1,0.1c0,0,0,0,0,0c0,0.1-0.1,0.1-0.2,0.1c-0.1,0-0.2,0.1-0.1,0.3c0.1,0,0.1,0,0.2,0c0.1,0,0.1,0.1,0.1,0.2    c0,0.1,0,0.1-0.1,0.2c-0.1,0-0.1,0.1-0.2,0.1c0,0,0,0.1,0.1,0.2c0,0,0,0.1,0,0.1c0,0,0,0.1,0,0.1c0,0,0,0.1,0,0.1c0,0,0,0.1,0,0.1    h-0.1c-0.1,0-0.1,0-0.1,0c-0.1-0.1-0.3-0.1-0.4,0v0c0.1,0.1,0.2,0.1,0.2,0.2c0.3,0.1,0.5,0.4,0.6,0.7l0.2,0.6l0.2,0.6    c0,0.2,0.2,0.3,0.4,0.3h0.4c0.3,0,0.5-0.2,0.7-0.4l0.1-0.2c0.1-0.1,0.1-0.3,0.1-0.5c0-0.1,0-0.3,0-0.4c0-0.1,0-0.2,0-0.4    c0-0.1,0-0.2,0-0.4c0-0.1,0-0.3-0.1-0.4c0-0.1,0-0.3,0-0.4c0-0.1,0-0.2-0.1-0.3c0-0.1,0-0.2,0-0.3c0,0,0-0.1,0-0.1    c-0.1-0.2-0.1-0.4-0.1-0.7c0-0.2,0-0.5,0-0.7c0-0.1,0-0.2,0-0.4c0-0.1,0-0.2-0.1-0.4c-0.1-0.1-0.1-0.3,0-0.4c0-0.2,0-0.4,0-0.6    v-0.2c0-0.2,0-0.4,0-0.5s0-0.4,0-0.6c0-0.1,0-0.2,0-0.3c0-0.1,0-0.2,0-0.3c0-0.1,0-0.3,0.1-0.4c0-0.1,0-0.3,0-0.4c0,0,0-0.1,0-0.1    c0,0,0-0.1,0-0.1c0.1-0.2,0.2-0.2,0.3-0.1c0.1,0.1,0.1,0.1,0.2,0.2c0.2,0.2,0.3,0.4,0.5,0.6c0.2,0.2,0.3,0.4,0.5,0.6l0,0    c0.1,0.2,0.2,0.4,0.3,0.6s0.2,0.4,0.3,0.5l0.6,1.1l0.3,0.4c0.1,0.2,0.2,0.3,0.2,0.5c0.1,0.3,0.3,0.6,0.4,1    c0.1,0.3,0.3,0.6,0.5,0.9c0.2,0.3,0.3,0.6,0.4,0.8c0.1,0.3,0.3,0.6,0.5,0.8c0.1,0.2,0.3,0.4,0.4,0.6c0.1,0.2,0.2,0.4,0.4,0.6    c0.1,0.1,0.1,0.3,0.2,0.4s0.1,0.3,0.2,0.4c0.2,0.3,0.4,0.6,0.6,0.8l0.4,0.2c0.1,0.1,0.2,0.1,0.4,0.2c0.2,0.1,0.4,0.2,0.6,0.2    c0.2,0,0.4,0,0.6-0.1c0.2-0.1,0.3,0,0.4,0c0.1,0.1,0.2,0.1,0.3,0l0.2-0.1c0.2-0.1,0.3-0.3,0.2-0.5    C111.7,31.7,111.5,31.4,111.3,31.2 M117.2,7.5c0,0.2,0,0.4,0.1,0.6c0.1,0,0.2,0.1,0.2,0.2c0,0-0.1,0-0.1,0c0,0,0,0-0.1,0    c0,0,0.1,0,0.1,0.1s0.1,0.1,0.1,0.1c0,0.1-0.1,0.2-0.1,0.3c0.1,0.1,0.1,0.1,0.2,0.2c0.1,0,0.1,0,0.1,0.1c0,0.1,0,0.1-0.1,0.1    c0,0,0,0.1-0.1,0.1c0,0-0.1,0.1-0.1,0.1c-0.1,0.1-0.1,0.1,0.1,0.1c0.2,0,0.2,0.1,0.2,0.2c-0.1,0.1-0.1,0.2,0,0.3    c0,0.1,0.1,0.1,0.1,0.2c0,0,0,0.1,0,0.2c0,0,0,0,0,0.1c0,0,0,0,0,0.1c0.1,0.1,0.1,0.2,0.2,0.3c0,0.1,0.1,0.1,0.1,0.2l0.1,0.1    c0.1,0.1,0.2,0.3,0.4,0.4c0.1,0,0.1,0.1,0.2,0.1c0.1,0.1,0.1,0.1,0.2,0.1c0.1,0,0.2-0.1,0.4-0.1c0.1,0,0.2,0,0.3,0.1    c0,0,0.1,0,0.1,0c0.1,0,0.2-0.1,0.2-0.2c0-0.1,0.1-0.3,0.2-0.4c0.1,0,0.1,0.1,0.2,0.1c0-0.1,0-0.2,0-0.4c0-0.1,0.1-0.2,0.1-0.2    c0-0.1,0.1-0.1,0.1-0.2c0.1-0.2,0.2-0.4,0.2-0.6c0.1-0.2,0-0.4-0.1-0.6c-0.1-0.1-0.1-0.1-0.1-0.2c0-0.1-0.1-0.1-0.1-0.2    c0-0.1,0-0.2-0.1-0.2c-0.1-0.2-0.2-0.4-0.2-0.5c-0.1-0.2-0.2-0.3-0.3-0.5c-0.1-0.1-0.2-0.3-0.2-0.5c0-0.1,0-0.1,0-0.2l-0.2-0.1    l-0.2-0.1c-0.1-0.1-0.2-0.2-0.3-0.3l-0.3-0.2c0,0-0.1,0.1-0.1,0.2c0,0.1-0.1,0.1-0.1,0.2c0,0,0-0.1,0-0.1c0,0,0-0.1,0-0.1    c-0.1,0-0.2-0.1-0.4-0.1c0,0-0.1,0-0.1,0c0,0-0.1,0.1-0.1,0.1c0,0,0,0-0.1,0c-0.1,0.1-0.1,0.1-0.2,0.1c-0.1,0-0.1,0.1-0.1,0.2    c0,0.1,0,0.1-0.1,0.1c-0.1,0.1-0.2,0-0.3,0c-0.1,0-0.1,0-0.2,0c0,0.1,0,0.2,0,0.2c0.1,0.1,0.1,0.2,0.2,0.3    C117.2,7.3,117.2,7.4,117.2,7.5 M122.4,25.4c0-0.1,0-0.2,0-0.3c0-0.1,0-0.2,0-0.3c0-0.1,0-0.2,0-0.3c0-0.1,0-0.2-0.1-0.3v-0.1    c0.1-0.1,0.1-0.2,0-0.3l-0.1-0.3c0,0,0-0.1,0-0.1c0,0,0-0.1,0-0.1c0-0.2,0-0.3-0.1-0.5c0-0.1-0.1-0.2-0.1-0.3c0-0.2,0-0.4,0-0.6    c0-0.2-0.1-0.4-0.1-0.6c0-0.1,0-0.2,0-0.3c0-0.1,0-0.2,0-0.3c0,0,0-0.1,0-0.1c0,0,0-0.1,0-0.1c-0.1-0.2-0.1-0.4-0.1-0.6    c0,0,0-0.1,0-0.1c0,0,0-0.1,0-0.1c0-0.3,0-0.6-0.1-0.9c0-0.2,0-0.5-0.1-0.7c-0.1-0.1-0.1-0.2-0.1-0.3c0-0.1,0-0.2,0-0.3    c0-0.1,0-0.3-0.1-0.4c0-0.1,0-0.3-0.1-0.4c0-0.1,0-0.1-0.1-0.2c-0.1,0-0.1-0.1-0.1-0.2c0.1-0.1,0.1-0.2,0-0.2c0,0-0.1-0.1-0.1-0.2    c0-0.1,0-0.1,0-0.2c0-0.1,0-0.1,0-0.2c0-0.1,0-0.1,0-0.2c-0.2-0.1-0.3-0.1-0.3-0.2s0-0.2,0.1-0.3c-0.1-0.1-0.1-0.2-0.1-0.3    c0-0.1-0.1-0.2-0.1-0.3c-0.1-0.2-0.3-0.4-0.5-0.5l-0.1,0c-0.2-0.1-0.4-0.2-0.6-0.2c-0.2-0.1-0.4-0.2-0.6-0.2c-0.1,0-0.2,0-0.3-0.1    c-0.1,0-0.2,0-0.3,0.2h0c0,0-0.1,0-0.1,0.1c0,0,0,0-0.1,0.1c0,0-0.1,0-0.1,0.1c0,0.1,0,0.2,0.1,0.3l0.1,0.2c0,0.1,0,0.1,0,0.2    l-0.1,1.1c0,0.1,0,0.1,0,0.2c0,0.1,0,0.2,0,0.3c0,0.1,0,0.3-0.1,0.5c0,0.2,0,0.4-0.1,0.5l-0.1,0.8c0,0.2-0.1,0.5-0.1,0.7    c-0.1,0.3-0.1,0.6-0.1,0.9c0,0.3,0,0.6-0.1,0.9c0,0.2,0,0.4,0,0.7v0.7c0,0.2,0,0.5,0,0.7v1.4c0,0.3,0,0.7,0,1v1.8    c0,0.1,0,0.3,0,0.4s0,0.3,0,0.4c0,0.3,0,0.7,0,1c0,0.3,0.1,0.6,0.2,0.9v0.3c0,0.1,0,0.2,0,0.2l0.1,0.7c0,0.2,0.1,0.5,0.1,0.7    c0,0.2,0,0.4,0.1,0.5c0.1,0.2,0.1,0.4,0.1,0.5c0,0.2,0.1,0.4,0.2,0.5l0.6,0.3c0,0,0.1,0,0.1,0c0,0,0.1,0,0.1,0    c0.1,0,0.3,0,0.4-0.1c0.2,0,0.4,0,0.6,0c0.1,0,0.1,0,0.1-0.1c0,0,0.1-0.1,0.1-0.1c0.1,0,0.1,0,0.1,0c0-0.1,0.1-0.1,0.1-0.1    c0.1,0.1,0.1,0.1,0.2,0l0.2-0.1c0.1,0,0.1,0,0.2,0c0.1,0,0.3-0.1,0.4-0.3c-0.1-0.1-0.1-0.2,0-0.2c0.1-0.2,0.1-0.3,0.2-0.3    c0.1-0.1,0.2-0.2,0.2-0.4c0-0.1,0.1-0.3,0.1-0.4c0-0.1,0.1-0.3,0.1-0.4c0,0,0-0.1,0.1-0.2c0,0,0-0.1,0.1-0.1c0,0,0-0.1,0-0.1    c0.1-0.2,0.1-0.4,0.1-0.6c0-0.2,0.1-0.4,0.1-0.6v0c-0.1-0.2-0.1-0.4,0-0.6v-0.6c0-0.1,0-0.2,0-0.4v-0.1c0-0.2,0-0.5,0.1-0.7    c0,0,0,0,0-0.1c0,0,0-0.1,0-0.1v-0.1C122.4,25.6,122.5,25.5,122.4,25.4 M137.3,9.9c0,0.3,0,0.6-0.1,0.9c-0.1,0.3-0.1,0.6-0.1,1    c0,0.3-0.1,0.6-0.1,1c-0.1,0.4-0.1,0.7-0.2,1.1c-0.1,0.3-0.1,0.6-0.2,0.9c-0.1,0.3-0.2,0.6-0.2,0.9c-0.1,0.5-0.3,0.9-0.6,1.3    c-0.2,0.2-0.3,0.3-0.5,0.5s-0.3,0.3-0.5,0.5c-0.2,0.1-0.3,0.3-0.5,0.3c-0.2,0.1-0.3,0.1-0.5,0.2c-0.2,0-0.3,0.1-0.5,0.1l-0.2,0.1    l-0.2,0.1c-0.2,0.1-0.3,0.2-0.5,0.2c-0.1,0-0.1,0-0.2,0c0,0,0-0.1,0-0.2c0.1-0.1,0.1-0.3,0.1-0.4c0-0.1,0-0.3,0-0.4    c0-0.1,0-0.2,0-0.4c0-0.1,0-0.2,0-0.4c0-0.2,0-0.3,0-0.5c0-0.2,0-0.3,0-0.5c0-0.2,0-0.3,0-0.5c0-0.2,0-0.3,0-0.5    c0-0.1,0-0.3,0-0.4c0-0.1,0-0.3,0.1-0.4c0-0.4,0.2-0.8,0.4-1.2c0.1-0.2,0.1-0.3,0.1-0.5c0-0.1,0-0.3-0.1-0.4c0-0.1,0-0.3,0.1-0.4    c0-0.1,0-0.2,0-0.3c0-0.1,0-0.2,0-0.3c0-0.1,0-0.2,0.1-0.3c0.1-0.1,0.1-0.2,0.2-0.3c0-0.1,0.1-0.2,0.1-0.3c0.1-0.3,0.3-0.7,0.4-1    c0.1-0.2,0.2-0.4,0.3-0.5c0.1-0.1,0.3-0.3,0.4-0.4c0.2-0.2,0.4-0.3,0.7-0.4c0.3-0.1,0.5-0.1,0.8-0.2c0.2,0,0.3,0,0.5,0    c0.2,0,0.4,0.1,0.5,0.2c0.3,0.1,0.5,0.4,0.5,0.7L137.3,9.9L137.3,9.9z M140.6,11.1c0-0.1,0-0.3,0-0.4c0-0.1,0-0.2,0-0.2    c-0.1-0.2-0.1-0.4,0-0.6c0.1-0.2,0-0.4-0.1-0.5c0,0,0,0-0.1-0.1c0-0.4-0.2-0.8-0.5-1.1c-0.1-0.1-0.2-0.3-0.4-0.4    c-0.1-0.1-0.3-0.2-0.4-0.3c-0.1,0-0.1-0.1-0.2-0.1c-0.1,0-0.1-0.1-0.2-0.1c-0.1-0.1-0.3-0.1-0.4-0.2c-0.1-0.1-0.2-0.1-0.4-0.2    c-0.2-0.1-0.5-0.2-0.7-0.3c-0.3-0.1-0.5-0.1-0.7-0.2c-0.2-0.1-0.4-0.1-0.5-0.1c-0.2,0-0.4-0.1-0.6-0.1c-0.3-0.1-0.7-0.1-1,0    c-0.3,0.1-0.6,0.1-0.9,0.2c-0.3,0.1-0.6,0.2-0.9,0.4c-0.2,0.1-0.3,0.2-0.5,0.3c-0.1,0.1-0.3,0.2-0.4,0.4c-0.1,0.2-0.3,0.4-0.5,0.6    c-0.2,0.2-0.4,0.5-0.6,0.7c-0.2,0.3-0.3,0.5-0.5,0.8v0.2c0,0.2,0,0.3,0,0.5c-0.1,0.3-0.2,0.7-0.3,1c-0.1,0.3-0.2,0.7-0.3,1    c0,0.1,0,0.2,0,0.2c0,0.2,0,0.3,0,0.5s0,0.3,0,0.5c0,0.1,0,0.3,0.1,0.4c0,0.1,0,0.3,0.1,0.4c0,0.1,0,0.2,0,0.3c0,0.1,0,0.2,0,0.3    c0,0.2,0,0.4,0,0.5c0,0.2,0,0.3-0.1,0.5c0,0.1,0,0.2,0,0.4c0,0.1,0,0.2,0,0.4v0.4c0,0.1,0,0.2,0,0.3c0,0.1,0,0.2,0.1,0.3    c0.1,0.1,0.1,0.2,0.1,0.4c0,0.1,0,0.2-0.1,0.4c-0.1,0.2-0.1,0.3,0,0.5c0,0.2,0,0.3,0,0.5c0,0,0,0,0,0.1c0,0,0,0,0,0    c0,0.1,0,0.1,0,0.2c0,0.1,0,0.1,0,0.2c0,0,0,0.1,0,0.1c0,0,0,0.1,0,0.1v0.6c0,0.2,0,0.4,0.1,0.6v0.1c-0.1,0.1-0.1,0.1,0,0.3    c0,0.1,0,0.1,0,0.2c0,0.1,0,0.2,0,0.2v0.2c0,0.1,0,0.2,0,0.3c0,0.1,0,0.2,0,0.3c-0.1,0.1-0.1,0.3,0,0.5c0,0.1,0.1,0.3,0.1,0.5    c0.1,0.2,0.1,0.3,0.1,0.5v0.5c0,0.2,0,0.3,0.1,0.5l-0.1,0.2c-0.1,0.2-0.1,0.4,0,0.6c0,0.1,0,0.2,0,0.3c0,0.1,0,0.2,0,0.3    c0.1,0.1,0.1,0.2,0,0.4l-0.1,0.2c0,0.1,0,0.2,0,0.3c0,0.2,0,0.4,0,0.6c0,0.2-0.1,0.4-0.1,0.6c0,0.1,0,0.1,0,0.2    c-0.2,0.4-0.3,0.8-0.3,1.3c-0.1,0.4,0,0.8,0,1.3c0,0.2,0.2,0.4,0.4,0.4c0.2,0,0.2,0.1,0.2,0.3c-0.1,0.1,0,0.1,0.1,0.2    c0,0,0.1,0,0.1,0.1c0.2,0.1,0.5,0.1,0.7-0.2c0,0,0,0,0,0c0.1-0.1,0.2-0.2,0.3-0.3c0.1-0.1,0.2-0.2,0.4-0.2c0.1,0,0.2-0.1,0.3-0.2    c0.1-0.1,0.1-0.2,0.2-0.3c0.1-0.1,0.1-0.2,0.1-0.3c0-0.1,0-0.2,0-0.3c0-0.1,0.1-0.2,0.1-0.3c0.1-0.1,0.1-0.3,0.2-0.4    c0.1-0.1,0.1-0.3,0.1-0.4c0-0.1,0-0.2,0.1-0.4c0-0.2,0-0.3,0.1-0.5v-0.2c0.1-0.2,0.1-0.4,0.1-0.6c0-0.2,0.1-0.4,0.1-0.6v-0.3    c0-0.1,0-0.2,0-0.2c0.1-0.1,0.1-0.3,0-0.4c0-0.2,0-0.4,0.1-0.6c0-0.1,0-0.1,0-0.2c0-0.1,0-0.1,0-0.2c0-0.4,0.1-0.7,0.2-1.1    c0-0.1,0-0.2,0-0.4c0-0.1,0-0.2,0-0.3c0-0.1,0-0.2,0.1-0.3c0.1-0.2,0.1-0.4,0.1-0.6v-0.2c0-0.2,0.2-0.3,0.4-0.3    c0.2,0,0.3,0,0.5,0.1c0.2,0,0.3,0,0.4-0.1c0.2-0.1,0.3-0.1,0.4-0.1l0.6-0.2l0.6-0.2c0.2-0.1,0.3-0.1,0.4-0.3    c0.1-0.1,0.1-0.1,0.2-0.2c0.1-0.1,0.2-0.1,0.2-0.2c0.1-0.1,0.2-0.1,0.3-0.1v0c0.2-0.2,0.5-0.4,0.8-0.6c0.1,0,0.1,0,0.1-0.1    c0,0,0,0,0,0c0-0.1,0.1-0.2,0.2-0.4c0.1-0.1,0.1-0.2,0.2-0.3l0.4-0.7c0.1-0.1,0.1-0.2,0.2-0.2c0-0.2,0.1-0.4,0.2-0.6    c0.1-0.2,0.2-0.4,0.2-0.6c0-0.2,0.1-0.3,0.1-0.5c0.1-0.1,0.1-0.3,0-0.5c0-0.1,0-0.1,0-0.1c0,0,0,0,0-0.1c0.1-0.2,0.2-0.4,0.2-0.7    c0.1-0.2,0.1-0.5,0.2-0.7c0-0.1,0.1-0.2,0.1-0.2c0-0.1,0.1-0.1,0.1-0.2c0.1-0.2,0.1-0.5,0.2-0.7l0.2-0.7c0,0,0-0.1,0-0.1    c0,0,0-0.1,0-0.1c0.1-0.1,0.1-0.3,0-0.4c0-0.1,0-0.2,0-0.3c0-0.2,0-0.3,0.1-0.5c0-0.2,0-0.3,0-0.5L140.6,11.1L140.6,11.1    L140.6,11.1z M155.3,21.9c-0.1,0.3-0.1,0.5-0.1,0.8c0,0.3,0,0.6-0.1,0.8v0.5c0,0.2,0,0.3,0,0.5c0,0.1,0,0.3,0,0.4l-0.1,0.4    c0,0.2,0,0.4-0.1,0.6c-0.1,0.2-0.1,0.5-0.2,0.7c-0.1,0.2-0.1,0.5-0.2,0.7c0,0,0,0.1,0,0.1c0,0,0,0.1,0,0.1    c-0.1,0.4-0.2,0.7-0.5,0.9c-0.1,0.1-0.2,0.2-0.3,0.3c-0.1,0.1-0.2,0.2-0.3,0.3c-0.1,0.1-0.3,0.2-0.5,0.3c-0.3,0.1-0.6,0-0.7-0.2    c-0.3-0.2-0.5-0.5-0.6-0.8c-0.2-0.3-0.3-0.6-0.4-0.9c-0.2-0.5-0.4-1-0.6-1.5c-0.1-0.2-0.1-0.4-0.2-0.6c-0.1-0.2-0.1-0.4,0-0.6    c0-0.1,0-0.2-0.1-0.2c0-0.1-0.1-0.1-0.1-0.2c0-0.1,0-0.2,0-0.2c0-0.2,0-0.3,0-0.5c0-0.2,0-0.3,0-0.5c-0.1-0.2-0.1-0.4-0.1-0.6    c0-0.2,0-0.4-0.1-0.6c0-0.1,0-0.1,0-0.2c-0.1-0.2-0.1-0.3-0.1-0.5c0-0.2-0.1-0.4-0.1-0.5c0-0.1,0-0.2,0-0.4c0-0.1,0-0.3-0.1-0.4    c0-0.1,0-0.3-0.1-0.4c-0.1-0.2-0.1-0.3,0-0.5c0-0.2,0.1-0.3,0.1-0.5l0.1-1c0-0.2,0.1-0.3,0.1-0.5l0.1-0.5c0.1-0.2,0.1-0.4,0.1-0.5    s0-0.4,0.1-0.5c0.1-0.2,0.1-0.3,0.1-0.5c0-0.1,0.1-0.3,0.1-0.4c0.1-0.2,0.1-0.4,0.2-0.6c0.1-0.2,0.1-0.4,0.1-0.6    c0-0.2,0.1-0.4,0.2-0.6c0,0,0,0,0-0.1c0,0,0,0,0-0.1c0-0.1,0-0.3,0.1-0.4c0-0.1,0-0.3,0.1-0.4c0.1-0.3,0.1-0.5,0.1-0.6    c0-0.1,0-0.2,0.1-0.3c0.1-0.1,0.1-0.2,0.2-0.3c0.1-0.2,0.2-0.4,0.2-0.6c0-0.2,0.1-0.4,0.2-0.6c0.1-0.2,0.2-0.3,0.3-0.4    c0.1-0.1,0.2-0.1,0.4,0c0.1,0.1,0.2,0.2,0.2,0.3c0.1,0.1,0.1,0.2,0.2,0.3c0.1,0.1,0.2,0.3,0.3,0.4c0.1,0.1,0.2,0.2,0.3,0.3    c0.1,0.1,0.2,0.3,0.4,0.4c0.1,0.1,0.2,0.3,0.3,0.4c0.1,0.1,0.1,0.2,0.2,0.3s0.1,0.2,0.2,0.3c0.2,0.3,0.3,0.7,0.3,1.1    c0,0.1,0,0.2,0,0.3c0,0.1,0,0.2,0,0.3c0,0.2,0,0.3,0.1,0.5c0.1,0.2,0.1,0.4,0.2,0.5c0.1,0.2,0.1,0.3,0.2,0.5l0,0.1    c0,0.1,0,0.3,0.1,0.4c0,0.1,0,0.2,0,0.4c0,0.1,0,0.3,0,0.4v0.4c0,0.2,0,0.4,0.1,0.7s0,0.5,0.1,0.7v1c0,0.7,0,1.3,0,2    c0,0.2,0,0.4,0,0.6C155.4,21.5,155.4,21.7,155.3,21.9 M159.6,24.8c0-0.1,0-0.1-0.1-0.2c0,0,0-0.1-0.1-0.1    c-0.1-0.1-0.2-0.2-0.2-0.3c0-0.1,0-0.2,0-0.3c0-0.1,0-0.1,0-0.2c0-0.1,0-0.1,0-0.2c0-0.1,0-0.3,0-0.4v-0.4c0-0.1,0.1-0.2,0.1-0.4    c0.1-0.2,0.1-0.3,0.2-0.5c0.1-0.1,0.1-0.2,0-0.3c-0.1-0.1-0.1-0.2,0-0.3c0-0.1,0-0.2-0.1-0.3c0-0.1,0-0.1,0-0.2c0-0.1,0-0.3,0-0.4    c0-0.1,0-0.3,0-0.4c0-0.1,0-0.2,0-0.3c0-0.5,0-1.1-0.1-1.6c0,0,0-0.1,0-0.1c0,0,0-0.1,0-0.1c0.1-0.1,0.1-0.3,0-0.4    c0-0.1-0.1-0.3-0.1-0.4c0-0.3-0.1-0.6-0.1-0.8c0-0.3,0-0.6,0-0.8v-0.1c-0.2-0.2-0.2-0.5-0.2-0.8c0,0,0-0.1,0-0.1c0,0,0-0.1,0-0.1    c0,0,0-0.1,0-0.1c0-0.2,0-0.3-0.1-0.5c-0.1-0.1-0.1-0.3-0.1-0.5c0,0,0-0.1-0.1-0.1c-0.1-0.1-0.1-0.3,0-0.5c0-0.2,0-0.4-0.1-0.5    c-0.2-0.4-0.3-0.9-0.3-1.4v-0.1c-0.1-0.1-0.1-0.3-0.1-0.4c0-0.1,0-0.3-0.1-0.4c0,0,0-0.1,0-0.1c0,0,0-0.1,0-0.1l-0.2-0.5    c0-0.1-0.1-0.2-0.2-0.4c-0.1-0.1-0.2-0.2-0.3-0.3c-0.1-0.1-0.1-0.2-0.2-0.2c0-0.2-0.1-0.3-0.3-0.4l-0.3-0.1    c-0.1,0-0.2-0.1-0.2-0.1c-0.1-0.1-0.2-0.1-0.4-0.2c-0.2-0.1-0.4-0.2-0.5-0.3c-0.2-0.1-0.4-0.1-0.6-0.2c0,0-0.1,0-0.1,0    c0,0-0.1,0-0.1,0c-0.3-0.1-0.6-0.2-0.9-0.2c-0.3,0-0.7,0-1,0H153c-0.3,0.1-0.6,0-0.8-0.1c-0.4-0.3-0.8-0.4-1.3-0.3    c-0.1,0-0.1,0-0.2,0c-0.1,0-0.1,0-0.2,0c-0.3,0-0.5,0.1-0.6,0.3c0,0,0,0,0,0c0,0,0,0,0,0c-0.2,0.1-0.4,0.3-0.6,0.6    c-0.1,0.1-0.2,0.3-0.3,0.4c-0.1,0.1-0.2,0.2-0.3,0.4c-0.1,0.2-0.3,0.4-0.4,0.5c-0.1,0.2-0.3,0.4-0.4,0.5c-0.1,0.1-0.1,0.2-0.2,0.3    c-0.1,0.1,0,0.2,0,0.3c-0.1,0.1-0.2,0.3-0.4,0.4c0,0.1,0,0.2-0.1,0.3c-0.1,0.1-0.1,0.1-0.2,0.2c0,0,0,0.1,0,0.1c0,0,0,0.1,0,0.1    c0,0,0,0.1,0,0.1c-0.2,0.2-0.3,0.3-0.4,0.5c-0.1,0.2-0.2,0.4-0.3,0.6c0,0,0,0.1,0,0.2c0,0.1,0,0.3-0.1,0.4    c-0.1,0.1-0.2,0.2-0.2,0.2c-0.1,0.1-0.1,0.2-0.1,0.3c0,0.1-0.1,0.2-0.1,0.4c0,0.1,0,0.1,0,0.2c0,0.1,0,0.1,0,0.2    c-0.1,0.1-0.1,0.2-0.1,0.4c0,0.1,0,0.3-0.1,0.4l-0.1,0.4c-0.1,0.1-0.1,0.3-0.1,0.4c0,0.1,0,0.3-0.1,0.4c0,0.1-0.1,0.2-0.1,0.3    c0,0.1,0,0.2,0,0.3c0,0.1,0,0.2,0,0.3l-0.1,0.3c-0.1,0.2-0.1,0.4-0.1,0.5c0,0.2-0.1,0.3-0.1,0.5c0,0.1,0,0.1,0,0.1c0,0,0,0,0,0.1    c0,0.1,0,0.1,0,0.2c0,0.1,0,0.1,0,0.2c0,0.2-0.1,0.4-0.1,0.6c0,0,0,0.1,0,0.2c0,0.1-0.1,0.2-0.1,0.4c-0.1,0.3-0.1,0.6-0.1,0.9    c0,0.3,0,0.6-0.1,0.9v0.3c0,0.1,0,0.2,0,0.3c0,0.1,0,0.2,0,0.3l-0.1,0.2c0,0.1,0,0.2,0,0.2v0.4c0,0.1,0,0.3,0,0.4v0.1    c0,0.2,0,0.3-0.1,0.5c0,0.1,0,0.3,0.1,0.4c0,0,0,0.1,0,0.1c0,0,0,0.1,0,0.1c0.1,0.1,0.1,0.2,0.1,0.3c0.1,0.1,0.1,0.2,0.3,0.2    c0,0,0.1,0,0.1,0.1c0,0,0.1,0.1,0.1,0.1c0.1,0.1,0,0.3,0,0.4c0,0,0,0,0,0.1c0.1,0,0.1,0.1,0.2,0.2c-0.1,0.1-0.1,0.1-0.1,0.2    c0,0.1,0,0.1-0.1,0.2c-0.1,0.1,0,0.2,0,0.2c0.2,0.2,0.3,0.4,0.1,0.6c0.1,0.1,0.2,0.3,0.2,0.4c0.1,0.1,0.1,0.2,0.2,0.4    c0.1,0.1,0.1,0.3,0.2,0.4c0.1,0.1,0.1,0.3,0.2,0.4c0.1,0,0.2-0.1,0.2-0.1c0,0,0.1,0,0.2,0.1s0.2,0.2,0.2,0.2    c0.1,0.1,0.1,0.2,0.2,0.2c0.1,0.1,0.1,0.2,0.1,0.3c-0.1,0.1-0.2,0-0.2,0c-0.1-0.1-0.1-0.1-0.2-0.1c-0.1,0.1-0.1,0.3,0,0.4    c0,0.1,0.1,0.2,0.3,0.3l0.2-0.2l0.3,0.3c0.1,0.1,0.2,0.2,0.2,0.2c0.1,0.1,0.1,0.1,0.2,0.2c0.2,0.1,0.3,0.3,0.5,0.4    c0.1,0.2,0.3,0.3,0.5,0.4c0,0,0,0.1,0,0.1c-0.1,0.1-0.2,0-0.3,0c0,0-0.1-0.1-0.1-0.1c0,0-0.1,0-0.2,0c0.1,0.1,0.1,0.1,0.2,0.1    c0.1,0.1,0.2,0.1,0.3,0.2c0.1,0.1,0.2,0.1,0.3,0.2c0.6,0.3,1.2,0.5,1.9,0.5c0.2,0,0.4,0,0.5,0c0.2,0,0.4,0,0.5,0    c0.2,0.1,0.4,0.1,0.6,0.1h0.6c0.2,0,0.3,0,0.4-0.1c0.2,0,0.3-0.1,0.5-0.1c0.1-0.1,0.3-0.1,0.5-0.1c0.2,0,0.5-0.1,0.6-0.2    c0,0,0.1-0.1,0.2-0.1c0.1,0,0.1-0.1,0.2-0.1c0.1-0.1,0.3-0.1,0.4-0.1c0.1,0,0.2-0.1,0.3-0.2c0.1-0.1,0.2-0.2,0.3-0.4    c0.1-0.1,0.2-0.2,0.4-0.3c0,0,0,0,0,0s0,0,0,0c0.2-0.3,0.4-0.6,0.6-0.8c0.2-0.2,0.5-0.5,0.7-0.7c0.1-0.1,0.2-0.2,0.2-0.2    c0-0.2,0.1-0.4,0.3-0.6c0,0,0,0,0,0c0,0,0-0.1,0.1-0.1c0,0,0.1-0.1,0.1-0.1c0.1-0.1,0.2-0.1,0.2-0.2c0.1-0.1,0.1-0.1,0.2-0.2    c0.1-0.1,0.2-0.3,0.1-0.4c0-0.1,0-0.2,0-0.3c0-0.1,0-0.2,0.1-0.3s0-0.2,0.1-0.4c0.1-0.1,0-0.3,0-0.4c-0.1-0.2-0.1-0.3,0-0.5    C159.6,25.4,159.7,25.1,159.6,24.8 M185.7,19.1c-0.1,0-0.2-0.1-0.2-0.2c0-0.1,0-0.1,0-0.2c0.1,0,0.1,0,0.2,0c0,0.1,0,0.1,0.1,0.2    C185.8,19.1,185.7,19.1,185.7,19.1 M184.6,17c-0.1,0.1-0.2,0-0.3,0c0,0-0.1,0-0.1-0.1c0,0,0,0,0,0c0-0.1-0.1-0.2-0.1-0.4    c0-0.1,0-0.2-0.1-0.4c0-0.1-0.1-0.1-0.1-0.2l-0.1-0.2c-0.1-0.1-0.1-0.1-0.1-0.2c0-0.1-0.1-0.1-0.1-0.2c0,0,0-0.1,0-0.1    c0,0,0-0.1,0-0.1c0-0.1,0-0.1,0-0.2c0-0.1,0-0.1,0.1-0.1c0.1,0,0.2,0.1,0.2,0.2c0,0.1,0.1,0.2,0.1,0.3c0,0.1,0.1,0.2,0.1,0.3    c0.1,0.1,0.1,0.3,0.2,0.4s0.1,0.3,0.2,0.4c0,0,0.1,0.1,0.1,0.1c0,0,0.1,0.1,0.1,0.1C184.7,16.8,184.7,17,184.6,17 M194.2,28.8    c-0.1-0.1-0.1-0.2,0-0.3c0-0.1,0-0.1,0-0.1c0,0,0-0.1,0-0.1c-0.1-0.2-0.1-0.4-0.1-0.6c0-0.2-0.1-0.4-0.1-0.6    c0-0.1-0.1-0.3-0.1-0.4c-0.1-0.2-0.1-0.3-0.1-0.5c0,0,0-0.1,0-0.1c0,0,0-0.1,0-0.1c-0.2-0.3-0.3-0.6-0.4-0.9c0,0,0,0,0-0.1    c0,0,0,0,0-0.1c-0.1-0.2-0.2-0.4-0.2-0.6c0-0.2-0.1-0.4-0.1-0.6c0,0,0-0.1,0-0.1c0,0,0-0.1,0-0.1l-0.1-0.3l-0.1-0.3    c-0.1-0.2-0.2-0.4-0.3-0.6c-0.1-0.2-0.2-0.3-0.4-0.5c-0.1-0.1-0.1-0.2-0.2-0.3c-0.1-0.1-0.1-0.2-0.2-0.3c-0.2-0.3-0.3-0.5-0.5-0.8    c-0.1-0.1-0.2-0.2-0.3-0.3c-0.1-0.1-0.2-0.2-0.3-0.3c-0.1-0.1-0.1-0.2-0.2-0.2c-0.1-0.1-0.1-0.1-0.2-0.2c-0.1-0.1-0.2-0.3-0.3-0.4    c-0.1-0.1-0.2-0.3-0.3-0.5c0,0,0-0.1,0-0.1c-0.2-0.1-0.3-0.3-0.4-0.5c-0.1-0.2-0.2-0.4-0.4-0.6l-0.2-0.4l-0.1-0.2    c-0.1-0.1-0.1-0.2-0.2-0.4c-0.1-0.1-0.1-0.2-0.2-0.3c-0.2-0.3-0.3-0.6-0.3-0.9c0-0.1-0.1-0.2-0.2-0.2c-0.1-0.1-0.2-0.2-0.2-0.3    c-0.1-0.3-0.2-0.7-0.1-1.1c0.1-0.1,0.1-0.3,0.1-0.4c0-0.1,0-0.2,0.1-0.3V13c0-0.1,0-0.2,0-0.3c0-0.1,0-0.2,0-0.2    c0-0.1,0.1-0.2,0.1-0.3c0.1-0.2,0.2-0.4,0.3-0.6c0.1-0.2,0.2-0.4,0.4-0.5c0.1-0.1,0.2-0.3,0.3-0.3c0.1-0.1,0.2-0.2,0.3-0.3    c0-0.1,0.1-0.2,0.2-0.3c0.1-0.1,0.3-0.2,0.4-0.3c0.1-0.1,0.3-0.2,0.4-0.3c0.1-0.1,0.3-0.2,0.5-0.3s0.4-0.1,0.5-0.3l0.2-0.1    c0.1-0.1,0.2-0.1,0.3-0.1s0.2-0.1,0.3-0.1c0.1-0.1,0.2-0.1,0.3-0.1c0.1,0,0.2-0.1,0.3-0.1c0.1,0,0.2,0,0.2-0.1    c0-0.1-0.1-0.2-0.1-0.2c-0.1-0.1-0.2-0.2-0.3-0.3c0-0.1-0.1-0.2-0.3-0.2c-0.1-0.1-0.2-0.1-0.2-0.2c-0.1-0.1-0.1-0.1-0.2-0.2    c-0.1-0.1-0.2-0.2-0.3-0.2l-1.3-0.5c-0.2-0.1-0.3,0-0.4,0.1c0.1,0.1,0.1,0.1,0.2,0.1c0.1,0,0.2,0,0.2,0.1    c-0.1,0.1-0.2,0.2-0.3,0.1c-0.1,0-0.2,0-0.3,0.1c-0.1,0.1-0.1,0.1-0.2,0c-0.1,0-0.1-0.1-0.2-0.1c-0.1,0-0.1,0-0.2,0h-0.4    c-0.1,0-0.1,0-0.1-0.1c0-0.1,0-0.1,0.1-0.2c0,0,0.1,0,0.1,0c0.3-0.1,0.5-0.1,0.8-0.1c0.1,0,0.1,0,0.2,0l0,0    c-0.5-0.1-0.9,0-1.4,0.1c-0.1,0-0.1,0-0.2,0c-0.1,0-0.1,0-0.2,0c-0.1,0.1-0.3,0.1-0.4,0.1s-0.3,0.1-0.4,0.1c-0.9,0.4-1.6,1.1-2,2    l-0.2,0.6c-0.1,0.2-0.2,0.4-0.3,0.7c-0.1,0.2-0.1,0.5-0.2,0.7c-0.1,0.2-0.1,0.4-0.2,0.6c0,0.1,0,0.2,0,0.3c0,0.1,0,0.2,0,0.3    c0,0.1,0,0.2-0.1,0.4c0,0.1,0,0.2,0,0.3c0,0.3,0,0.5,0,0.8c0,0.3,0.1,0.5,0.1,0.8c0.1,0.2,0.1,0.5,0.2,0.7    c0.1,0.2,0.2,0.5,0.2,0.8c0.1,0.3,0.1,0.5,0.3,0.8c0.1,0.2,0.3,0.5,0.4,0.8c0,0,0,0.1,0,0.1c0.1,0.1,0.1,0.2,0.1,0.3    c0,0.1,0.1,0.2,0.2,0.3c0,0,0,0,0,0.1c0,0,0,0,0,0.1c0.1,0.3,0.2,0.5,0.4,0.8c0.2,0.2,0.3,0.5,0.5,0.7c0.1,0.2,0.3,0.4,0.4,0.5    c0.1,0.2,0.3,0.3,0.4,0.5c0.1,0.1,0.2,0.2,0.2,0.3s0.1,0.2,0.2,0.3c0.1,0.2,0.2,0.4,0.3,0.5c0.1,0.2,0.2,0.4,0.3,0.6    c0,0.1,0.1,0.1,0.1,0.2s0.1,0.1,0.1,0.2c0.2,0.4,0.3,0.7,0.4,1.1c0.1,0.4,0.2,0.7,0.3,1.1c0.1,0.5,0.1,1,0.1,1.5    c0,0.3-0.1,0.7-0.3,0.9c-0.1,0.1-0.1,0.2-0.2,0.3c-0.1,0.1-0.2,0.2-0.2,0.3c-0.1,0.1-0.2,0.3-0.3,0.4c-0.1,0.1-0.2,0.3-0.3,0.4    c-0.2,0.3-0.5,0.5-0.9,0.7c-0.2,0.1-0.4,0.2-0.6,0.3c-0.2,0.1-0.4,0.2-0.6,0.3c-0.2,0.1-0.4,0.3-0.6,0.5c-0.2,0.2-0.3,0.4-0.4,0.6    c-0.1,0.2-0.2,0.3-0.3,0.5c-0.1,0.2-0.1,0.4,0.1,0.4c0.2,0.1,0.3,0.1,0.5,0.1c0.2,0,0.3,0.1,0.5,0.1c0.1,0.1,0.2,0.1,0.2,0    c0.1,0,0.2,0,0.3,0.1c0.1,0.2,0.4,0.3,0.6,0.2c0.1,0,0.3,0,0.4,0c0.1,0,0.2,0,0.2,0c0,0,0.1,0,0.1,0c0,0,0.1,0,0.1,0    c0.1-0.1,0.3,0,0.4,0c0.1,0,0.3,0.1,0.4,0.1c0.2,0,0.3,0,0.5,0c0.2,0,0.3,0,0.5,0h0.1c0.1,0,0.3-0.1,0.4-0.1c0.2,0,0.3,0,0.5,0    c0.3,0,0.6-0.1,0.8-0.3c0.1,0,0.2-0.1,0.2-0.1c0.1,0,0.2-0.1,0.3-0.2c0.1-0.1,0.3-0.2,0.4-0.3c0.1-0.1,0.3-0.1,0.5-0.1    c0.2,0,0.3-0.1,0.5-0.1c0.1,0,0.3-0.1,0.4-0.2c0,0,0.1-0.1,0.2-0.1c0.1,0,0.1-0.1,0.2-0.1c0.3-0.2,0.5-0.4,0.6-0.6    c0.1-0.1,0.1-0.1,0.2-0.2c0.1-0.1,0.1-0.2,0.2-0.2c0-0.2,0.1-0.4,0.1-0.6c0-0.1,0-0.2,0-0.3C194.2,29,194.2,28.9,194.2,28.8     M164.7,25.4c0-0.1,0-0.2,0-0.4c0,0,0,0,0,0s0,0,0,0c0,0.2,0,0.4,0,0.6C164.6,25.6,164.6,25.5,164.7,25.4L164.7,25.4z M164.1,15    l0-0.2l0.1,0l0,0c0,0,0,0,0,0l0,0.5C164.2,15.2,164.1,15.2,164.1,15L164.1,15z M164.3,16.8c0,0-0.1,0.1-0.1,0.1    c-0.1-0.1-0.1-0.3-0.1-0.5c0,0,0.1,0.1,0.1,0.1c0,0,0.1,0.1,0.1,0.1C164.3,16.8,164.3,16.8,164.3,16.8z M164,18.3    c0.1-0.1,0.1-0.1,0.1-0.2c0-0.1,0-0.2,0.1-0.2c0,0.1,0,0.3,0,0.4L164,18.3z M168.2,10.9c2.6,1,5.8,1.4,7.5,4.2    c0.3,0.8,0.5,1.7,0.4,2.5c0,0.2-0.1,0.3-0.1,0.5c0,0.2-0.1,0.3-0.1,0.4c0,0.1,0,0.2,0,0.4c0,0.1,0,0.2,0,0.4c0,0,0,0.1,0,0.1    c0,0,0,0,0,0l0,0.1c0,0,0,0-0.1,0c0,0-0.1,0-0.1-0.1c0,0.1-0.1,0.1-0.1,0.2l0,0.2c0,0.1-0.1,0.1-0.1,0.2c0,0.1,0,0.1-0.1,0.2    c0,0.1,0,0.2,0,0.4c0,0.2,0,0.4-0.1,0.6s-0.1,0.4-0.1,0.6s0,0.3,0,0.4l-0.2,0.8c0,0.1,0,0.1,0,0.2l0,0.2c0,0,0,0.1,0,0.1    c0,0-0.1,0.1-0.2,0c0,0-0.1,0-0.1,0.1l-0.1,0.3c0,0.1,0,0.2,0,0.3c0,0,0,0,0,0c0,0,0,0,0,0.1c0,0.1-0.1,0.2-0.1,0.3    c0,0.1-0.1,0.2-0.1,0.3c-0.1,0.1-0.1,0.2-0.2,0.3c0,0,0,0,0,0c-0.1,0.1-0.2,0.3-0.3,0.4c-1.3,1.3-2.9,2.2-4.8,2.5l-0.2-0.1    c-0.1,0-0.2-0.1-0.3-0.1l-0.5-0.2l-0.2-0.1c-0.1-2.7-0.4-12.5-0.4-14C167.9,12.6,168,11.8,168.2,10.9    C168.2,10.9,168.2,10.9,168.2,10.9z M164.3,22.9c-0.1,0-0.1-0.1-0.2-0.1c0,0,0-0.1,0.1-0.1c0,0,0.1,0,0.2,0.1    C164.4,22.8,164.3,22.9,164.3,22.9L164.3,22.9L164.3,22.9z M169.9,7.5c-1.4-0.3-2.8-0.6-4.2-0.7c-0.1,0-0.2-0.1-0.2-0.1    c-0.1-0.1-0.3-0.1-0.4,0c0,0-0.1,0-0.1,0c0,0-0.1,0-0.1,0c-0.1,0.1-0.3,0.1-0.4,0.1h0c0,0.1,0,0.3,0.1,0.3c0.1,0,0.1,0.1,0,0.2    c0,0.1-0.1,0.3-0.1,0.4c0,0.1-0.1,0.3-0.2,0.4l0.1,0.1c0,0.1-0.1,0.3-0.1,0.4l0,0.2c0,0-0.1,0.1-0.1,0.2c0,0.1,0,0.1,0,0.2    c0,0.1,0,0.1,0,0.1c0,0,0,0,0,0.1c0,0.1,0,0.2,0,0.2c0,0,0,0-0.1,0.1c0,0,0,0.1-0.1,0.1c0,0.1,0,0.1,0,0.1c0,0,0.1,0,0.1,0    l-0.1,0.3c0,0.1,0,0.1,0,0.2c0,0.1,0,0.1,0,0.2h0c0,0-0.1,0-0.1,0c0,0,0,0-0.1,0c0.1,0.1,0.1,0.2,0.1,0.3c0,0.1,0,0.1,0,0.2l0,0.2    c0,0.1-0.1,0.2-0.1,0.2c0,0.1,0,0.1,0,0.2c0,0.1,0,0.2,0,0.4c0,0.1,0,0.2,0.1,0.3v0c0,0,0,0-0.1,0c0,0,0,0,0,0c0,0.1,0,0.2,0,0.2    c0,0.1,0,0.1,0,0.2l0,0.1c-0.1,0.1-0.1,0.2,0,0.3c0,0.1,0,0.2,0,0.3c0,0,0,0,0,0c0.1,0,0.2,0,0.2-0.1l0.1,1c0,0-0.1,0.1-0.1,0.1    c-0.1,0.1-0.1,0.1-0.1,0.1l-0.1,0c0,0.1,0,0.2,0,0.2c0,0.2,0,0.4,0,0.6c0,0.2,0,0.4,0,0.6c0,0.1,0,0.2,0,0.2c0,0.1,0,0.2-0.1,0.2    v0c0,0,0,0,0,0s0,0,0,0c0,0.2,0,0.4,0,0.6c0,0.2,0,0.3,0,0.5c0,0.2,0,0.3-0.1,0.5c0,0.1,0,0.2,0,0.4c0,0.1,0,0.2,0,0.4    c0,0,0,0.1,0,0.1c0-0.1,0-0.1,0.1-0.2l0.2,0l0,0.3l0.2,0c0,0-0.1,0.1-0.1,0.1c0,0-0.1,0.1-0.1,0.1c0,0,0,0.1,0,0.1    c0,0,0,0.1,0,0.1c0,0,0.1-0.1,0.1-0.1c0,0,0-0.1,0.1-0.1c0,0.1,0,0.1,0,0.2c0,0-0.1,0.1-0.1,0.1c-0.1,0-0.1,0-0.2,0    c0,0.1,0,0.2,0,0.3c0,0,0,0.1,0,0.1c0,0,0,0.1,0,0.1c0.1,0,0.1-0.1,0.1-0.2c0-0.1,0.1-0.2,0.2-0.2l0.1,0.1c0,0,0,0.1,0,0.1    c0,0,0,0.1,0,0.1l0.2,0v0l0,0.5c0,0,0,0,0,0.1c-0.1,0.1-0.1,0.3,0,0.4c0,0.1,0,0.1,0,0.1c0,0,0,0,0,0.1c0,0.1,0,0.1-0.1,0.2    c0,0.1,0,0.1,0.1,0.2c0.1,0.1,0.1,0.2,0,0.3c0,0-0.1-0.1-0.1-0.1c0,0.1-0.1,0.2-0.1,0.3c-0.1,0.1-0.1,0.2-0.1,0.3l-0.1-0.2    c0-0.1-0.1-0.1-0.1-0.2c0-0.1,0-0.1,0-0.2c0-0.1,0-0.2,0-0.2C164,21.9,164,22,164,22c0,0.1,0,0.1,0,0.2c0,0.1,0,0.2,0,0.2l-0.2,0    c-0.1,0.1-0.1,0.3,0,0.5c0.1,0,0.1-0.1,0.1-0.2c0-0.1,0-0.1,0-0.2l0.1,0.1c0,0.1,0,0.1,0,0.2c0,0,0,0.1,0,0.1c0,0.1,0,0.2-0.1,0.3    c0,0,0.1,0,0.1,0c0,0,0.1,0,0.1,0.1c-0.1,0-0.2,0.1-0.2,0.1c0,0,0,0.1,0,0.1c0,0,0,0.1,0,0.1c0,0.1,0.1,0.2,0.1,0.2l-0.1,0.1    c0,0,0.1,0.1,0.1,0.1l0,0.3c0,0,0,0.1,0,0.1c0,0,0,0.1,0,0.1c0,0.1,0,0.2,0,0.3c0,0.1,0,0.2,0.1,0.2c0.1,0.2,0.1,0.4,0.1,0.5    l0.1,0c0,0,0,0,0-0.1c0-0.1,0-0.1,0.1-0.2c0,0.1,0.1,0.2,0.1,0.2c0,0.1,0,0.2,0,0.2c0,0.1,0,0.3,0.1,0.4c0-0.2,0.1-0.4,0.2-0.6    c0,0,0,0.1,0,0.1c0,0,0,0.1,0,0.1c0,0,0,0,0,0c0,0.4,0,0.8-0.1,1.2c-0.1,0-0.2,0-0.3,0.1c-0.1-0.1-0.2,0-0.2,0.1c0,0,0,0.1,0,0.1    c0,0,0,0.1,0,0.1c0,0,0.1,0.1,0.1,0.2c0,0.1,0,0.3,0,0.4s0,0.3,0,0.4c0,0.1,0.1,0.1,0.1,0.1c0,0,0,0,0,0l0,0.2h0    c0,0.1,0,0.1,0,0.2c0,0.1,0,0.2,0,0.3v0c-0.1,0.9-0.2,1.4-0.2,1.7v1.3h2.5c0,0,0,0.1,0,0.1c0.1,0,0.2,0.1,0.2,0.1l0-0.2h2.8    c0.2,0,2.5-0.7,3.2-1c6.2-2.1,6.8-5.9,6.8-10.6C179.8,14.6,177.3,8.8,169.9,7.5C169.9,7.5,169.9,7.5,169.9,7.5z"/>
		<path d="M163.8,25.3c-0.1,0.2,0,0.3,0.1,0.4c0.1,0,0.1-0.1,0.1-0.2c0-0.1,0-0.1,0-0.2C164,25.3,163.8,25.3,163.8,25.3z     M163.7,24.4c0,0.2,0,0.3,0,0.5h0c0-0.2,0.1-0.3,0.1-0.5L163.7,24.4z M164.1,21.6c0-0.1,0-0.1,0-0.2c0-0.1,0-0.1,0-0.2    c0,0-0.1,0.1-0.1,0.1c-0.1,0-0.1,0.1-0.1,0.1C164,21.5,164.1,21.5,164.1,21.6 M164.2,20.4L164.2,20.4c-0.1,0.1-0.1,0.2-0.1,0.2    c-0.1,0.2,0,0.4,0.1,0.5C164.2,20.9,164.2,20.7,164.2,20.4 M163.9,19.3l0,0.2c0,0.1,0,0.2,0,0.3c0-0.1,0.1-0.1,0.1-0.2    c0,0,0,0,0,0c0,0,0,0,0,0c0-0.2,0-0.4-0.1-0.5C163.9,19.2,163.9,19.3,163.9,19.3"/>
	</g>
</g>
<g class="st5">
	<path d="M67.9,45.1h-2.7l-0.5,1.5h-2.1l3-8.3h1.9l3.1,8.3h-2.1L67.9,45.1z M65.7,43.6h1.8l-0.9-2.9L65.7,43.6z"/>
	<path d="M76.7,38.4l1.9,5.8l1.8-5.8H83v8.3h-2v-1.9l0.2-4l-2,5.9h-1.3l-2-5.9l0.2,4v1.9h-2v-8.3H76.7z"/>
	<path d="M89.2,43.9v2.8h-2v-8.3h3.3c0.6,0,1.2,0.1,1.7,0.3c0.5,0.2,0.9,0.6,1.1,1s0.4,0.9,0.4,1.5c0,0.8-0.3,1.5-0.9,1.9   c-0.6,0.5-1.4,0.7-2.4,0.7H89.2z M89.2,42.3h1.3c0.4,0,0.7-0.1,0.9-0.3s0.3-0.5,0.3-0.8c0-0.4-0.1-0.7-0.3-0.9   c-0.2-0.2-0.5-0.3-0.9-0.4h-1.3V42.3z"/>
	<path d="M99.7,45.1h3.5v1.5h-5.5v-8.3h2V45.1z"/>
	<path d="M109.1,46.7h-2v-8.3h2V46.7z"/>
	<path d="M118.6,43.4h-3.2v3.3h-2v-8.3h5.5v1.5h-3.5v1.9h3.2V43.4z"/>
	<path d="M125.7,42l1.5-3.6h2.2l-2.7,5.3v3h-2v-3l-2.7-5.3h2.1L125.7,42z"/>
	<path d="M143.5,45.1h-2.7l-0.5,1.5h-2.1l3-8.3h1.9l3.1,8.3H144L143.5,45.1z M141.2,43.6h1.8l-0.9-2.9L141.2,43.6z"/>
	<path d="M154.8,43.4h-3.2v3.3h-2v-8.3h5.5v1.5h-3.5v1.9h3.2V43.4z"/>
	<path d="M162,43.7h-1.1v2.9h-2v-8.3h3.3c1,0,1.8,0.2,2.3,0.7c0.6,0.4,0.8,1.1,0.8,1.8c0,0.6-0.1,1.1-0.4,1.4s-0.6,0.7-1.1,0.9   l1.7,3.3v0.1h-2.1L162,43.7z M160.9,42.2h1.3c0.4,0,0.7-0.1,0.9-0.3s0.3-0.5,0.3-0.8c0-0.4-0.1-0.6-0.3-0.8   c-0.2-0.2-0.5-0.3-0.9-0.3h-1.3V42.2z"/>
	<path d="M171.6,46.7h-2v-8.3h2V46.7z"/>
	<path d="M182.6,43.9c0,0.6-0.2,1.1-0.5,1.5c-0.3,0.4-0.7,0.8-1.2,1c-0.5,0.2-1.1,0.4-1.8,0.4c-1.1,0-1.9-0.4-2.6-1.1   c-0.6-0.7-0.9-1.7-0.9-3v-0.4c0-0.8,0.1-1.5,0.4-2.1c0.3-0.6,0.7-1.1,1.2-1.4c0.5-0.3,1.1-0.5,1.8-0.5c1,0,1.8,0.3,2.4,0.8   c0.6,0.5,1,1.3,1,2.2h-2c0-0.5-0.1-0.9-0.4-1.1c-0.2-0.2-0.6-0.3-1.1-0.3c-0.5,0-0.9,0.2-1.1,0.6s-0.4,1-0.4,1.8v0.6   c0,0.9,0.1,1.5,0.3,1.9c0.2,0.4,0.6,0.6,1.1,0.6c0.5,0,0.8-0.1,1.1-0.3c0.2-0.2,0.4-0.6,0.4-1H182.6z"/>
	<path d="M191.2,45.1h-2.7l-0.5,1.5h-2.1l3-8.3h1.9l3.1,8.3h-2.1L191.2,45.1z M188.9,43.6h1.8l-0.9-2.9L188.9,43.6z"/>
</g>
</svg>